<svg width="207" height="191" viewBox="0 0 207 191" fill="none" xmlns="http://www.w3.org/2000/svg">
<path d="M161.379 151.175C161.379 149.817 140.667 148.723 115.117 148.723C89.5671 148.723 68.8555 149.826 68.8555 151.175C68.8555 152.534 89.5671 153.629 115.117 153.629C140.667 153.629 161.379 152.526 161.379 151.175Z" fill="#231F20"/>
<path d="M115.116 154.115C102.751 154.115 91.1208 153.859 82.3769 153.399C78.117 153.176 74.7646 152.904 72.4229 152.617C71.2223 152.468 70.2892 152.303 69.6576 152.139C68.975 151.958 68.3359 151.719 68.3359 151.176C68.3359 150.625 68.9665 150.386 69.6576 150.213C70.2892 150.049 71.2223 149.892 72.4229 149.736C74.7646 149.44 78.117 149.175 82.3769 148.954C91.1208 148.492 102.751 148.237 115.116 148.237C127.481 148.237 139.111 148.492 147.855 148.954C152.115 149.175 155.467 149.44 157.809 149.736C159.01 149.883 159.944 150.049 160.574 150.213C161.257 150.393 161.896 150.632 161.896 151.176C161.896 151.727 161.265 151.966 160.574 152.139C159.944 152.303 159.01 152.459 157.809 152.617C155.467 152.913 152.115 153.176 147.855 153.399C139.111 153.859 127.481 154.115 115.116 154.115ZM69.8136 151.176C70.8932 151.473 74.081 152.007 83.4395 152.476C92.0454 152.904 103.296 153.143 115.116 153.143C126.936 153.143 138.186 152.904 146.792 152.476C156.15 152.007 159.33 151.473 160.418 151.176C159.338 150.879 156.15 150.345 146.792 149.876C138.186 149.447 126.936 149.208 115.116 149.208C103.296 149.208 92.0454 149.447 83.4395 149.876C74.082 150.345 70.8932 150.871 69.8136 151.176Z" fill="#231F20"/>
<path d="M135.068 32.3882H93.6279C86.9572 32.3882 81.5391 37.542 81.5391 43.9044V139.396C81.5391 145.751 86.9487 150.912 93.6279 150.912H135.068C141.738 150.912 147.156 145.759 147.156 139.396V43.8959C147.147 37.5409 141.738 32.3882 135.068 32.3882Z" fill="#231F20"/>
<path d="M135.069 151.234H93.6291C86.7779 151.234 81.1953 145.924 81.1953 139.388V43.8959C81.1953 37.369 86.7684 32.0518 93.6291 32.0518H135.069C141.922 32.0518 147.503 37.3605 147.503 43.8959V139.388C147.503 145.924 141.922 151.234 135.069 151.234ZM93.6291 32.7181C87.158 32.7181 81.8959 37.7308 81.8959 43.8959V139.388C81.8959 145.553 87.158 150.566 93.6291 150.566H135.069C141.542 150.566 146.804 145.553 146.804 139.388V43.8959C146.804 37.7308 141.542 32.7181 135.069 32.7181H93.6291Z" fill="#231F20"/>
<path d="M144.857 44.1676V139.117C144.857 144.418 140.347 148.715 134.782 148.715H93.9127C88.3482 148.715 83.8281 144.418 83.8281 139.117V44.1686C83.8281 38.8673 88.3482 34.5698 93.9127 34.5698H134.782C140.347 34.5698 144.857 38.8673 144.857 44.1676Z" fill="white"/>
<path d="M134.874 149.452H94.0038C88.2577 149.452 83.5742 144.999 83.5742 139.525V44.5678C83.5742 39.0946 88.2492 34.6411 94.0038 34.6411H134.874C140.619 34.6411 145.294 39.0946 145.294 44.5678V139.517C145.303 144.999 140.619 149.452 134.874 149.452ZM94.0038 35.299C88.6378 35.299 84.2748 39.4564 84.2748 44.5678V139.517C84.2748 144.628 88.6378 148.785 94.0038 148.785H134.874C140.239 148.785 144.603 144.628 144.603 139.517V44.5689C144.603 39.4564 140.239 35.299 134.874 35.299H94.0038Z" fill="#231F20"/>
<path d="M115.144 38.4142C115.144 37.994 114.789 37.665 114.357 37.665C113.916 37.665 113.57 38.0025 113.57 38.4142C113.57 38.8259 113.925 39.1633 114.357 39.1633C114.789 39.1633 115.144 38.8259 115.144 38.4142Z" fill="#231F20"/>
<path d="M114.347 39.5008C113.717 39.5008 113.207 39.0148 113.207 38.4142C113.207 37.8136 113.717 37.3276 114.347 37.3276C114.978 37.3276 115.487 37.8136 115.487 38.4142C115.487 39.0148 114.978 39.5008 114.347 39.5008ZM114.347 37.994C114.233 37.9917 114.123 38.0346 114.04 38.1134C113.958 38.1921 113.91 38.3002 113.907 38.4142C113.907 38.6445 114.105 38.8344 114.347 38.8344C114.461 38.8367 114.572 38.7938 114.654 38.7151C114.737 38.6364 114.785 38.5282 114.788 38.4142C114.785 38.3002 114.737 38.1921 114.654 38.1134C114.572 38.0346 114.461 37.9917 114.347 37.994Z" fill="#231F20"/>
<path d="M94.9518 137.413L99.4273 139.874C100.162 140.277 101.086 139.775 101.086 138.96V134.037C101.086 133.222 100.163 132.721 99.4273 133.124L94.9518 135.586C94.2088 135.997 94.2088 137.01 94.9518 137.413Z" fill="white"/>
<path d="M99.9774 140.352C99.7268 140.352 99.4763 140.286 99.2523 140.162L94.7758 137.701C94.5566 137.586 94.3731 137.414 94.2453 137.202C94.1174 136.99 94.0502 136.747 94.0508 136.499C94.0508 135.997 94.3183 135.544 94.7758 135.298L99.2523 132.836C99.7098 132.582 100.254 132.582 100.712 132.836C101.171 133.084 101.438 133.537 101.438 134.039V138.961C101.438 139.463 101.162 139.908 100.712 140.162C100.478 140.286 100.228 140.352 99.9774 140.352ZM99.9774 133.314C99.8444 133.314 99.7137 133.348 99.5973 133.412L95.1219 135.874C95.0071 135.933 94.9108 136.023 94.8438 136.133C94.7767 136.243 94.7414 136.37 94.7418 136.499C94.7418 136.762 94.8798 136.994 95.1219 137.125L99.5973 139.586C99.7137 139.651 99.8447 139.685 99.9779 139.685C100.111 139.685 100.242 139.651 100.358 139.586C100.473 139.527 100.57 139.437 100.637 139.327C100.704 139.217 100.739 139.09 100.738 138.961V134.039C100.739 133.909 100.704 133.782 100.637 133.672C100.57 133.561 100.473 133.472 100.358 133.412C100.242 133.348 100.111 133.314 99.9774 133.314Z" fill="#231F20"/>
<path d="M133.748 135.586L129.272 133.124C128.538 132.721 127.613 133.224 127.613 134.039V138.96C127.613 139.775 128.538 140.278 129.272 139.874L133.748 137.413C134.491 137.01 134.491 135.997 133.748 135.586Z" fill="white"/>
<path d="M128.721 140.351C128.467 140.35 128.217 140.285 127.995 140.162C127.775 140.047 127.592 139.874 127.464 139.662C127.336 139.45 127.269 139.207 127.27 138.96V134.037C127.27 133.536 127.546 133.082 127.995 132.836C128.217 132.715 128.467 132.651 128.721 132.651C128.974 132.651 129.224 132.715 129.447 132.836L133.922 135.297C134.381 135.553 134.648 135.997 134.648 136.499C134.648 137.001 134.371 137.446 133.922 137.7L129.447 140.162C129.224 140.285 128.975 140.35 128.721 140.351ZM128.721 133.314C128.588 133.314 128.457 133.348 128.341 133.412C128.226 133.472 128.13 133.561 128.063 133.671C127.995 133.782 127.96 133.908 127.961 134.037V138.96C127.961 139.223 128.099 139.454 128.341 139.586C128.574 139.718 128.859 139.718 129.101 139.586L133.577 137.124C133.692 137.065 133.789 136.975 133.856 136.865C133.923 136.755 133.959 136.628 133.959 136.499C133.959 136.369 133.923 136.243 133.856 136.132C133.789 136.022 133.692 135.932 133.577 135.873L129.101 133.412C128.985 133.347 128.854 133.313 128.721 133.314Z" fill="#231F20"/>
<path d="M144.857 111.624V139.124C144.857 144.426 140.347 148.722 134.782 148.722H93.9127C88.3482 148.722 83.8281 144.426 83.8281 139.124V88.6909C84.2659 88.534 84.7295 88.4616 85.1943 88.4776C96.3054 88.7567 93.1092 121.543 104.514 121.543C115.116 121.543 114.243 88.4033 124.56 88.4033C134.669 88.4033 134.869 110.743 144.857 111.624Z" fill="#B8B8B8"/>
<path d="M134.783 149.134H93.914C88.1159 149.134 83.3984 144.64 83.3984 139.117V88.3958L83.6829 88.296C84.184 88.1231 84.6935 88.0414 85.2115 88.0573C87.8654 88.1231 89.9821 89.91 91.6668 93.5146C93.1189 96.6258 94.138 100.792 95.1231 104.825C97.0849 112.842 99.1145 121.131 104.516 121.131C109.519 121.131 111.938 112.776 114.27 104.701C115.445 100.643 116.655 96.4539 118.202 93.3501C119.991 89.753 122.073 88 124.553 88C129.962 88 132.65 93.9762 135.25 99.7539C137.695 105.187 140.227 110.809 144.892 111.22L145.29 111.253V139.133C145.299 144.64 140.581 149.134 134.783 149.134ZM84.271 88.9879V139.117C84.271 144.179 88.6 148.303 93.914 148.303H134.783C140.097 148.303 144.426 144.187 144.426 139.117V111.986C139.501 111.279 136.935 105.582 134.455 100.067C133.193 97.2518 131.88 94.3465 130.299 92.2306C128.562 89.9015 126.739 88.8234 124.562 88.8234C119.774 88.8234 117.407 97.0046 115.117 104.915C113.925 109.04 112.689 113.303 111.099 116.48C109.25 120.168 107.099 121.954 104.524 121.954C101.759 121.954 99.5646 120.176 97.8279 116.505C96.3237 113.352 95.2877 109.106 94.2845 105.005C92.3578 97.1447 90.3706 89.0123 85.1946 88.8892C84.8837 88.8804 84.573 88.9136 84.271 88.9879Z" fill="#131111"/>
<path d="M118.117 136.499C118.117 134.516 116.431 132.911 114.349 132.911C112.267 132.911 110.582 134.516 110.582 136.499C110.582 138.484 112.267 140.088 114.349 140.088C116.431 140.088 118.117 138.484 118.117 136.499Z" fill="white"/>
<path d="M114.347 140.418C112.074 140.418 110.234 138.664 110.234 136.499C110.234 134.334 112.084 132.582 114.347 132.582C116.611 132.582 118.46 134.343 118.46 136.499C118.46 138.664 116.62 140.418 114.347 140.418ZM114.347 133.248C112.464 133.248 110.934 134.705 110.934 136.499C110.934 138.294 112.464 139.75 114.347 139.75C116.231 139.75 117.76 138.294 117.76 136.499C117.76 134.705 116.231 133.248 114.347 133.248Z" fill="#231F20"/>
<path d="M94.9518 137.413L99.4273 139.874C100.162 140.277 101.086 139.775 101.086 138.96V134.037C101.086 133.222 100.163 132.721 99.4273 133.124L94.9518 135.586C94.2088 135.997 94.2088 137.01 94.9518 137.413Z" fill="white"/>
<path d="M99.9774 140.352C99.7268 140.352 99.4763 140.286 99.2523 140.162L94.7758 137.701C94.5566 137.586 94.3731 137.414 94.2453 137.202C94.1174 136.99 94.0502 136.747 94.0508 136.499C94.0508 135.997 94.3183 135.544 94.7758 135.298L99.2523 132.836C99.7098 132.582 100.254 132.582 100.712 132.836C101.171 133.084 101.438 133.537 101.438 134.039V138.961C101.438 139.463 101.162 139.908 100.712 140.162C100.478 140.286 100.228 140.352 99.9774 140.352ZM99.9774 133.314C99.8444 133.314 99.7137 133.348 99.5973 133.412L95.1219 135.874C95.0071 135.933 94.9108 136.023 94.8438 136.133C94.7767 136.243 94.7414 136.37 94.7418 136.499C94.7418 136.762 94.8798 136.994 95.1219 137.125L99.5973 139.586C99.7137 139.651 99.8447 139.685 99.9779 139.685C100.111 139.685 100.242 139.651 100.358 139.586C100.473 139.527 100.57 139.437 100.637 139.327C100.704 139.217 100.739 139.09 100.738 138.961V134.039C100.739 133.909 100.704 133.782 100.637 133.672C100.57 133.561 100.473 133.472 100.358 133.412C100.242 133.348 100.111 133.314 99.9774 133.314Z" fill="#231F20"/>
<path d="M133.748 135.586L129.272 133.124C128.538 132.721 127.613 133.224 127.613 134.039V138.96C127.613 139.775 128.538 140.278 129.272 139.874L133.748 137.413C134.491 137.01 134.491 135.997 133.748 135.586Z" fill="white"/>
<path d="M128.721 140.351C128.467 140.35 128.217 140.285 127.995 140.162C127.775 140.047 127.592 139.874 127.464 139.662C127.336 139.45 127.269 139.207 127.27 138.96V134.037C127.27 133.536 127.546 133.082 127.995 132.836C128.217 132.715 128.467 132.651 128.721 132.651C128.974 132.651 129.224 132.715 129.447 132.836L133.922 135.297C134.381 135.553 134.648 135.997 134.648 136.499C134.648 137.001 134.371 137.446 133.922 137.7L129.447 140.162C129.224 140.285 128.975 140.35 128.721 140.351ZM128.721 133.314C128.588 133.314 128.457 133.348 128.341 133.412C128.226 133.472 128.13 133.561 128.063 133.671C127.995 133.782 127.96 133.908 127.961 134.037V138.96C127.961 139.223 128.099 139.454 128.341 139.586C128.574 139.718 128.859 139.718 129.101 139.586L133.577 137.124C133.692 137.065 133.789 136.975 133.856 136.865C133.923 136.755 133.959 136.628 133.959 136.499C133.959 136.369 133.923 136.243 133.856 136.132C133.789 136.022 133.692 135.932 133.577 135.873L129.101 133.412C128.985 133.347 128.854 133.313 128.721 133.314Z" fill="#231F20"/>
<path d="M131.647 60.7296H94.6914V52.3086H131.647V60.7296Z" fill="#5F005F"/>
<path d="M131.645 61.2228H94.6892C94.5572 61.2256 94.4295 61.1761 94.334 61.085C94.2385 60.9939 94.183 60.8687 94.1797 60.7368V52.3084C94.183 52.1765 94.2385 52.0513 94.334 51.9602C94.4295 51.8691 94.5572 51.8196 94.6892 51.8224H131.645C131.777 51.8193 131.905 51.8687 132 51.9598C132.096 52.0509 132.152 52.1763 132.155 52.3084V60.7294C132.164 61.001 131.93 61.2228 131.645 61.2228ZM95.1988 60.2434H131.135V52.7944H95.1988V60.2434Z" fill="#231F20"/>
<path d="M125.437 69.1579H94.6953V60.7295H125.437V69.1579Z" fill="#5F005F"/>
<path d="M125.432 69.6439H94.6892C94.5572 69.6468 94.4295 69.5972 94.334 69.5061C94.2385 69.415 94.183 69.2898 94.1797 69.1579V60.7295C94.183 60.5976 94.2385 60.4724 94.334 60.3813C94.4295 60.2902 94.5572 60.2407 94.6892 60.2435H125.432C125.717 60.2435 125.942 60.4664 125.942 60.7295V69.1579C125.941 69.2235 125.927 69.2881 125.901 69.3482C125.875 69.4083 125.837 69.4625 125.789 69.5077C125.742 69.553 125.686 69.5883 125.625 69.6117C125.563 69.6351 125.498 69.646 125.432 69.6439ZM95.1998 68.673H124.914V61.224H95.1988L95.1998 68.673Z" fill="#231F20"/>
<path d="M130.152 77.5789H94.6914V69.158H130.152V77.5789Z" fill="#480048"/>
<path d="M130.15 78.0734H94.6892C94.5572 78.0762 94.4295 78.0267 94.334 77.9356C94.2385 77.8445 94.183 77.7193 94.1797 77.5874V69.1579C94.1833 69.0262 94.2389 68.9012 94.3344 68.8104C94.4299 68.7195 94.5574 68.6701 94.6892 68.673H130.15C130.435 68.673 130.659 68.8958 130.659 69.1579V77.5789C130.669 77.8505 130.435 78.0734 130.15 78.0734ZM95.1988 77.0929H129.64V69.6439H95.1988V77.0929Z" fill="#231F20"/>
<path d="M94.6892 82.8546C94.5574 82.8575 94.4299 82.8081 94.3344 82.7172C94.2389 82.6264 94.1833 82.5014 94.1797 82.3697V47.4103C94.1833 47.2786 94.2389 47.1537 94.3344 47.0628C94.4299 46.972 94.5574 46.9226 94.6892 46.9254C94.9652 46.9254 95.1988 47.1482 95.1988 47.4103V82.3612C95.1979 82.4271 95.1841 82.4922 95.158 82.5527C95.1319 82.6133 95.0941 82.668 95.0467 82.7139C94.9993 82.7598 94.9434 82.7958 94.882 82.82C94.8207 82.8441 94.7551 82.8559 94.6892 82.8546Z" fill="#231F20"/>
<path d="M175.913 50.8357L177.762 53.8482L182.073 51.4522L151.356 93.0286L140.987 77.7104L119.014 110.48L109.709 96.9059L95.7539 118.868L98.8907 120.678L109.83 103.467L119.049 116.916L141.005 84.1726L151.227 99.2765L185.262 53.2136L184.389 58.1616L188.001 58.7378L190.869 42.5293L175.913 50.8357Z" fill="#5F005F"/>
<path d="M98.8908 121.017C98.8274 121.015 98.7653 120.998 98.7103 120.967L95.5735 119.157C95.5346 119.135 95.5006 119.106 95.4737 119.07C95.4468 119.035 95.4277 118.994 95.4174 118.951C95.4055 118.908 95.4031 118.862 95.4104 118.818C95.4177 118.774 95.4346 118.732 95.4599 118.695L109.415 96.7342C109.446 96.6851 109.49 96.6449 109.541 96.6174C109.593 96.5899 109.651 96.576 109.709 96.5771H109.717C109.838 96.5771 109.942 96.6355 110.011 96.7257L119.015 109.871L140.703 77.5387C140.734 77.4896 140.778 77.4494 140.829 77.4219C140.881 77.3944 140.938 77.3805 140.997 77.3816C141.118 77.3816 141.222 77.44 141.291 77.5302L151.365 92.4367L180.872 52.5145L177.944 54.1444C177.864 54.1895 177.77 54.2018 177.681 54.1789C177.592 54.1559 177.516 54.0994 177.468 54.0213L175.62 51.0077C175.597 50.9698 175.582 50.9277 175.576 50.884C175.57 50.8402 175.573 50.7957 175.585 50.753C175.611 50.6656 175.67 50.5918 175.749 50.5472L190.688 42.2504C190.746 42.2186 190.811 42.2034 190.877 42.2064C190.942 42.2094 191.006 42.2305 191.06 42.2673C191.172 42.3416 191.224 42.4647 191.206 42.5963L188.338 58.8037C188.32 58.8917 188.269 58.9694 188.195 59.0201C188.121 59.0708 188.03 59.0907 187.941 59.0753L184.329 58.4992C184.24 58.4847 184.16 58.4378 184.105 58.3676C184.078 58.3327 184.059 58.2927 184.049 58.2502C184.038 58.2077 184.037 58.1635 184.044 58.1203L184.666 54.6134L151.512 99.4835C151.478 99.5289 151.434 99.5652 151.383 99.5894C151.331 99.6137 151.275 99.625 151.218 99.6225C151.162 99.6225 151.107 99.6089 151.058 99.5831C151.008 99.5572 150.966 99.5198 150.934 99.474L141.005 84.8062L119.335 117.098C119.303 117.147 119.26 117.187 119.208 117.215C119.157 117.242 119.099 117.256 119.041 117.255C118.984 117.255 118.927 117.241 118.876 117.216C118.825 117.19 118.781 117.152 118.747 117.106L109.83 104.1L99.1848 120.861C99.1533 120.91 99.1097 120.95 99.0583 120.977C99.0068 121.005 98.9491 121.018 98.8908 121.017ZM96.238 118.761L98.7783 120.226L109.536 103.294C109.568 103.245 109.611 103.205 109.663 103.178C109.714 103.15 109.772 103.137 109.83 103.138C109.888 103.135 109.945 103.148 109.997 103.174C110.048 103.2 110.092 103.238 110.124 103.287L119.041 116.308L140.703 83.9998C140.734 83.9509 140.778 83.9109 140.829 83.8836C140.881 83.8563 140.938 83.8426 140.997 83.8438C141.118 83.8438 141.222 83.9011 141.291 83.9923L151.235 98.6834L184.969 53.0238C185.016 52.9629 185.082 52.9189 185.157 52.8982C185.231 52.8776 185.311 52.8815 185.383 52.9092C185.455 52.9347 185.516 52.9853 185.554 53.0516C185.592 53.118 185.605 53.1958 185.591 53.2711L184.769 57.889L187.699 58.358L190.386 43.1799L176.388 50.9493L177.883 53.3941L181.892 51.1722C181.962 51.1337 182.042 51.1193 182.12 51.1312C182.198 51.1431 182.27 51.1807 182.325 51.238C182.378 51.2916 182.411 51.3631 182.415 51.439C182.42 51.5149 182.397 51.5898 182.35 51.6497L151.633 93.2261C151.599 93.2717 151.555 93.3083 151.504 93.3327C151.452 93.3571 151.396 93.3686 151.339 93.3662C151.283 93.3661 151.228 93.3525 151.178 93.3267C151.129 93.3008 151.086 93.2634 151.054 93.2176L140.98 78.3271L119.3 110.66C119.268 110.709 119.225 110.749 119.173 110.777C119.122 110.804 119.064 110.817 119.006 110.816C118.949 110.816 118.893 110.803 118.842 110.777C118.791 110.751 118.747 110.714 118.713 110.669L109.717 97.5396L96.238 118.761Z" fill="#300030"/>
<path d="M101.951 119.756C101.942 117.015 99.6005 114.801 96.7227 114.817C93.8459 114.833 91.5211 117.056 91.5392 119.797C91.5477 122.538 93.8894 124.753 96.7662 124.736C99.6429 124.728 101.968 122.497 101.951 119.756Z" fill="#F7B3C7"/>
<path d="M96.7387 125.074C95.2862 125.083 93.8856 124.535 92.8248 123.543C92.3105 123.065 91.8996 122.487 91.6174 121.844C91.3351 121.201 91.1875 120.508 91.1836 119.806C91.1741 116.892 93.6538 114.506 96.7132 114.489H96.7387C99.7895 114.489 102.278 116.852 102.295 119.757C102.303 121.172 101.725 122.498 100.688 123.503C99.642 124.506 98.2513 125.058 96.7652 125.066C96.7567 125.074 96.7471 125.074 96.7387 125.074ZM96.7471 115.147H96.7302C94.0519 115.156 91.8832 117.246 91.8917 119.798C91.8971 120.412 92.027 121.017 92.2735 121.579C92.52 122.141 92.878 122.646 93.3258 123.065C94.2523 123.934 95.4768 124.415 96.7471 124.408H96.7652C98.0411 124.407 99.2684 123.918 100.195 123.041C101.111 122.16 101.612 121 101.604 119.765C101.595 117.213 99.4169 115.147 96.7471 115.147Z" fill="#231F20"/>
<path d="M122.66 164.277L122.945 163.757L123.086 163.195L123.072 162.626L122.908 162.091L122.601 161.625L122.173 161.262L121.655 161.025L121.081 160.929L120.49 160.984L119.922 161.183L119.416 161.514L119.008 161.954L118.723 162.473L118.582 163.036L118.596 163.604L118.76 164.139L119.067 164.605L119.495 164.968L120.013 165.207L120.587 165.301L121.179 165.247L121.746 165.047L122.252 164.717L122.66 164.277Z" fill="#CAE062"/>
<path d="M119.294 165.331L119.208 165.276L118.78 164.912L118.713 164.836L118.406 164.37L118.362 164.279L118.198 163.743L118.182 163.642L118.168 163.074L118.18 162.97L118.321 162.407L118.36 162.306L118.645 161.788L118.708 161.701L119.117 161.26L119.201 161.188L119.707 160.858L119.806 160.809L120.374 160.61L120.48 160.587L121.071 160.532L121.178 160.536L121.753 160.631L121.855 160.662L122.373 160.9L122.459 160.955L122.887 161.319L122.954 161.395L123.26 161.861L123.304 161.952L123.469 162.488L123.485 162.589L123.499 163.156L123.486 163.261L123.346 163.824L123.307 163.925L123.022 164.443L122.959 164.53L122.55 164.972L122.465 165.043L121.96 165.373L121.861 165.422L121.293 165.621L121.187 165.645L120.596 165.699L120.488 165.695L119.914 165.6L119.813 165.569L119.295 165.332L119.294 165.331ZM119.392 164.33L119.74 164.627L120.164 164.821L120.632 164.899L121.114 164.854L121.578 164.692L121.99 164.422L122.323 164.063L122.555 163.639L122.67 163.18L122.659 162.716L122.525 162.28L122.275 161.9L121.926 161.604L121.503 161.409L121.034 161.332L120.552 161.376L120.088 161.538L119.676 161.808L119.343 162.167L119.11 162.591L118.996 163.05L119.007 163.514L119.14 163.95L119.392 164.33Z" fill="#231F20"/>
<path d="M90.8128 12.9806L91.0984 12.4607L91.2385 11.8983L91.2247 11.3295L91.0601 10.7947L90.7534 10.3289L90.3266 9.966L89.8075 9.72831L89.2343 9.63281L88.642 9.68799L88.074 9.88642L87.5687 10.2175L87.1601 10.6578L86.8756 11.1767L86.7344 11.7391L86.7482 12.3079L86.9127 12.8437L87.2195 13.3085L87.6473 13.6714L88.1653 13.9102L88.7386 14.0046L89.3309 13.9505L89.8988 13.751L90.4041 13.421L90.8128 12.9806Z" fill="#7248EE"/>
<path d="M87.4466 14.0342L87.3606 13.979L86.9328 13.6161L86.8649 13.5397L86.5581 13.0739L86.5156 12.9816L86.35 12.4468L86.3331 12.346L86.3203 11.7772L86.332 11.6732L86.4721 11.1108L86.5114 11.01L86.7969 10.4911L86.8606 10.4031L87.2693 9.9627L87.3542 9.89161L87.8595 9.5616L87.9583 9.51279L88.5262 9.3133L88.6323 9.28996L89.2226 9.23584L89.3308 9.24008L89.9041 9.33558L90.006 9.3653L90.524 9.60298L90.6111 9.65816L91.0378 10.0211L91.1057 10.0985L91.4136 10.5633L91.456 10.6556L91.6216 11.1904L91.6376 11.2912L91.6503 11.86L91.6397 11.964L91.4985 12.5263L91.4592 12.6272L91.1737 13.1471L91.11 13.2341L90.7023 13.6745L90.6174 13.7456L90.1121 14.0766L90.0123 14.1254L89.4455 14.3239L89.3393 14.3472L88.748 14.4013L88.6408 14.3981L88.0665 14.3026L87.9646 14.2719L87.4466 14.0342ZM87.5443 13.0336L87.8924 13.3307L88.3149 13.5238L88.7831 13.6023L89.2661 13.5577L89.73 13.3954L90.1418 13.1248L90.4752 12.7662L90.7087 12.3428L90.8223 11.8833L90.8117 11.4196L90.6769 10.9824L90.4263 10.6036L90.0782 10.3065L89.6557 10.1134L89.1875 10.0359L88.7045 10.0794L88.2406 10.2418L87.8288 10.5113L87.4954 10.8721L87.2619 11.2944L87.1483 11.7539L87.1589 12.2176L87.2937 12.6547L87.5443 13.0336Z" fill="#231F20"/>
<path d="M137.458 155.021C137.443 155.012 137.429 155.001 137.416 154.99L137.257 154.855C137.231 154.833 137.209 154.807 137.19 154.779L137.077 154.606C137.058 154.578 137.043 154.546 137.032 154.514L136.972 154.314C136.961 154.282 136.955 154.248 136.955 154.213L136.949 154.002C136.949 153.967 136.952 153.932 136.962 153.897L137.014 153.687C137.023 153.653 137.036 153.62 137.053 153.588L137.159 153.395C137.177 153.363 137.198 153.333 137.223 153.306L137.375 153.143C137.4 153.116 137.428 153.092 137.459 153.072L137.648 152.949C137.679 152.929 137.712 152.912 137.746 152.9L137.959 152.826L138.011 152.811L157.451 148.564C157.468 148.561 157.486 148.558 157.504 148.556L157.725 148.535C157.76 148.532 157.796 148.534 157.832 148.54L158.046 148.575C158.081 148.581 158.114 148.591 158.146 148.606L158.339 148.695C158.371 148.708 158.4 148.726 158.425 148.749L158.584 148.885C158.611 148.907 158.633 148.932 158.652 148.961L158.767 149.135C158.786 149.163 158.8 149.194 158.809 149.226L158.871 149.426C158.882 149.459 158.887 149.493 158.888 149.527L158.893 149.739C158.893 149.774 158.889 149.809 158.881 149.843L158.829 150.052C158.82 150.087 158.806 150.121 158.789 150.153L158.683 150.346C158.666 150.377 158.644 150.407 158.619 150.433L158.468 150.597C158.443 150.625 158.414 150.648 158.383 150.668L158.195 150.791C158.164 150.811 158.131 150.828 158.096 150.84L157.885 150.914C157.867 150.92 157.85 150.925 157.832 150.929L138.392 155.175C138.374 155.179 138.357 155.182 138.339 155.183L138.119 155.203C138.083 155.207 138.047 155.206 138.011 155.2L137.797 155.164C137.763 155.159 137.729 155.149 137.697 155.135L137.503 155.045C137.488 155.038 137.472 155.03 137.458 155.021Z" fill="#EE4878"/>
<path d="M158.136 149.058L158.295 149.193L158.41 149.366L158.47 149.566L158.476 149.777L158.424 149.987L158.317 150.18L158.164 150.344L157.977 150.467L157.765 150.541L154.527 151.249L151.288 151.956L148.047 152.664L144.808 153.371L141.566 154.08L138.324 154.788L138.105 154.808L137.891 154.772L137.698 154.684L137.539 154.548L137.424 154.375L137.363 154.176L137.358 153.964L137.41 153.755L137.517 153.561L137.669 153.397L137.857 153.274L138.069 153.2L141.307 152.492L144.546 151.786L147.787 151.078L151.026 150.37L154.268 149.662L157.51 148.954L157.729 148.933L157.943 148.969L158.136 149.058ZM158.625 148.382C158.596 148.363 158.566 148.346 158.535 148.332L158.342 148.244C158.278 148.214 158.21 148.193 158.14 148.182L157.927 148.146C157.855 148.135 157.783 148.132 157.711 148.139L157.49 148.159C157.454 148.162 157.419 148.168 157.383 148.176L154.142 148.883L150.9 149.592L147.662 150.299L144.421 151.007L141.182 151.715L137.943 152.422C137.907 152.429 137.872 152.439 137.838 152.452L137.627 152.525C137.557 152.549 137.49 152.583 137.428 152.624L137.241 152.747C137.178 152.787 137.122 152.835 137.072 152.889L136.919 153.053C136.87 153.106 136.827 153.165 136.793 153.229L136.686 153.422C136.652 153.485 136.625 153.552 136.608 153.621L136.556 153.83C136.538 153.899 136.53 153.969 136.531 154.039L136.537 154.252C136.539 154.32 136.55 154.388 136.57 154.453L136.63 154.653C136.65 154.719 136.68 154.78 136.717 154.837L136.832 155.01C136.869 155.067 136.915 155.119 136.967 155.163L137.126 155.299C137.178 155.343 137.237 155.38 137.299 155.409L137.492 155.497C137.556 155.526 137.624 155.547 137.694 155.559L137.907 155.594C137.978 155.606 138.051 155.609 138.123 155.602L138.343 155.581C138.379 155.578 138.415 155.573 138.451 155.565L141.692 154.858L144.933 154.149L148.172 153.442L151.413 152.734L154.652 152.026L157.891 151.319C157.926 151.311 157.961 151.301 157.996 151.289L158.207 151.215C158.277 151.191 158.344 151.158 158.405 151.117L158.593 150.994C158.655 150.954 158.712 150.906 158.762 150.852L158.914 150.688C158.964 150.635 159.007 150.576 159.041 150.512L159.147 150.319C159.182 150.256 159.209 150.189 159.226 150.12L159.278 149.911C159.296 149.842 159.304 149.772 159.302 149.702L159.297 149.489C159.295 149.421 159.284 149.353 159.264 149.288L159.204 149.088C159.184 149.023 159.154 148.961 159.117 148.904L159.002 148.731C158.964 148.674 158.919 148.622 158.867 148.578L158.708 148.442C158.682 148.42 158.654 148.4 158.625 148.382Z" fill="#231F20"/>
<path d="M37.5481 96.1111C37.5359 96.1034 37.5242 96.0949 37.5131 96.0856L37.3517 95.953C37.325 95.9317 37.3014 95.9067 37.2817 95.8787L37.1649 95.7079C37.1451 95.6795 37.1293 95.6484 37.1182 95.6156L37.0545 95.4171C37.0487 95.4012 37.0441 95.3849 37.0407 95.3683L34.8783 83.4446C34.8754 83.4278 34.8736 83.4108 34.873 83.3937L34.8635 83.1815C34.8624 83.1465 34.8659 83.1115 34.8741 83.0775L34.9219 82.8674C34.9303 82.8323 34.9431 82.7984 34.9601 82.7666L35.062 82.5713C35.0791 82.5395 35.1001 82.5099 35.1246 82.4833L35.2732 82.3167C35.298 82.2888 35.3262 82.2642 35.3571 82.2434L35.5429 82.1172C35.5736 82.0966 35.6068 82.0798 35.6416 82.0673L35.8518 81.9888C35.886 81.9763 35.9217 81.9682 35.9579 81.9644L36.1777 81.94C36.2137 81.9361 36.2501 81.9368 36.2859 81.9421L36.5004 81.9739C36.5351 81.9789 36.569 81.9886 36.6012 82.0026L36.7965 82.0875C36.8284 82.1023 36.8581 82.1193 36.8836 82.1405L37.046 82.2732C37.0725 82.2949 37.0957 82.3202 37.115 82.3485L37.2328 82.5193C37.2525 82.5477 37.2679 82.5788 37.2785 82.6116L37.3432 82.809C37.3487 82.8253 37.353 82.842 37.356 82.8589L39.5183 94.7826C39.5216 94.7994 39.5238 94.8164 39.5247 94.8335L39.5332 95.0457C39.5343 95.0807 39.5307 95.1157 39.5226 95.1497L39.4748 95.3598C39.4668 95.3949 39.4543 95.4288 39.4377 95.4606L39.3347 95.6548C39.3181 95.6871 39.2974 95.717 39.2731 95.744L39.1245 95.9106C39.0993 95.938 39.0708 95.9623 39.0396 95.9827L38.8538 96.11C38.8233 96.1304 38.7905 96.1472 38.7561 96.1599L38.546 96.2374C38.5117 96.2502 38.4761 96.2587 38.4398 96.2628L38.2201 96.2872C38.184 96.291 38.1477 96.2903 38.1118 96.2851L37.8974 96.2533C37.8623 96.2483 37.828 96.2387 37.7955 96.2246L37.6012 96.1398C37.5828 96.1316 37.565 96.122 37.5481 96.1111Z" fill="#CAE062"/>
<path d="M36.6067 82.4535L36.768 82.5861L36.8858 82.7559L36.9517 82.9554L37.3115 84.9407L37.6724 86.9271L38.0323 88.9135L38.3932 90.901L38.7531 92.8895L39.114 94.878L39.1225 95.0903L39.0737 95.3004L38.9718 95.4945L38.8221 95.6611L38.6363 95.7874L38.4251 95.8649L38.2053 95.8893L37.9909 95.8574L37.7956 95.7726L37.6342 95.6399L37.5164 95.4701L37.4506 95.2717L37.0907 93.2853L36.7298 91.2989L36.3699 89.3125L36.0101 87.325L35.6492 85.3365L35.2882 83.348L35.2797 83.1358L35.3286 82.9267L35.4315 82.7315L35.5801 82.5649L35.7659 82.4386L35.9772 82.3612L36.1969 82.3368L36.4113 82.3686L36.6067 82.4535ZM37.095 81.7765C37.0621 81.7555 37.0277 81.737 36.992 81.7213L36.7967 81.6364C36.7323 81.6085 36.6644 81.5893 36.595 81.5791L36.3795 81.5473C36.3078 81.5367 36.235 81.5352 36.1629 81.5431L35.9432 81.5675C35.8707 81.5754 35.7994 81.5921 35.7309 81.6173L35.5218 81.6948C35.452 81.7205 35.3857 81.7548 35.3243 81.7967L35.1386 81.9229C35.0774 81.9642 35.0214 82.0126 34.9719 82.0672L34.8233 82.2338C34.7748 82.288 34.733 82.3478 34.6991 82.4121L34.5961 82.6063C34.5628 82.6701 34.5379 82.7378 34.5218 82.8079L34.473 83.018C34.4572 83.0865 34.4508 83.1568 34.4539 83.227L34.4624 83.4393C34.4636 83.4731 34.4672 83.5067 34.473 83.5401L34.8339 85.5296L35.1948 87.5182L35.5557 89.5056L35.9156 91.491L36.2765 93.4774L36.6353 95.4638C36.6417 95.4972 36.6502 95.5301 36.6608 95.5625L36.7256 95.7609C36.7468 95.8256 36.7786 95.8882 36.8168 95.9434L36.9336 96.1153C36.9729 96.1705 37.0196 96.2214 37.0727 96.2649L37.234 96.3976C37.2871 96.44 37.3466 96.4771 37.4102 96.5037L37.6056 96.5886C37.6693 96.6172 37.7372 96.6374 37.8073 96.6469L38.0228 96.6787C38.0939 96.6894 38.1661 96.6904 38.2393 96.683L38.459 96.6586C38.5316 96.6506 38.6029 96.6339 38.6714 96.6087L38.8805 96.5313C38.9502 96.5055 39.0165 96.4712 39.0779 96.4294L39.2637 96.3031C39.3248 96.2619 39.3808 96.2134 39.4304 96.1588L39.579 95.9922C39.6275 95.9381 39.6692 95.8782 39.7032 95.8139L39.8051 95.6198C39.8387 95.556 39.864 95.4883 39.8804 95.4181L39.9293 95.208C39.945 95.1395 39.9514 95.0692 39.9484 94.999L39.9399 94.7868C39.9386 94.753 39.935 94.7193 39.9293 94.686L39.5683 92.6964L39.2074 90.7079L38.8465 88.7204L38.4866 86.7351L38.1257 84.7487L37.7669 82.7623C37.7605 82.7289 37.752 82.6959 37.7414 82.6636L37.6767 82.4652C37.6551 82.4003 37.6243 82.3388 37.5854 82.2827L37.4686 82.1108C37.4296 82.0546 37.3827 82.0042 37.3296 81.9611L37.1672 81.8285C37.1445 81.8097 37.1197 81.7924 37.095 81.7765Z" fill="#231F20"/>
<path d="M96.9568 145.193L96.3825 146.444L95.8178 147.697L95.2583 148.953L94.6957 150.21L94.1289 151.463L93.5493 152.712L94.4781 153.63L95.3985 154.558L96.3124 155.491L97.2275 156.426L98.1447 157.356L99.0693 158.28L97.8135 157.816L96.5524 157.361L95.2891 156.911L94.0248 156.459L92.7648 156L91.51 155.53L90.4888 156.498L89.4581 157.455L88.422 158.41L87.3838 159.363L86.3499 160.319L85.3234 161.281L85.9147 160.008L86.4964 158.731L87.0739 157.451L87.6524 156.171L88.2363 154.895L88.8339 153.622L87.887 152.728L86.9507 151.824L86.0187 150.913L85.0867 150.002L84.1525 149.095L83.2109 148.196L84.4848 148.636L85.7629 149.067L87.0431 149.494L88.3244 149.922L89.6003 150.357L90.8721 150.803L91.8773 149.86L92.8911 148.925L93.9102 147.995L94.9303 147.065L95.9473 146.132L96.9568 145.193Z" fill="white"/>
<path d="M85.6079 161.558L84.9561 161.141L86.1281 158.593L87.869 154.756L88.3477 153.735L86.6556 152.115L83.8574 149.386L82.918 148.489L83.3829 147.818L85.9306 148.689L89.7713 149.978L90.801 150.34L92.6247 148.646L96.6904 144.915L97.3411 145.332L96.2031 147.833L94.5131 151.6L94.0461 152.604L95.7138 154.271L99.3846 157.991L98.9058 158.654L96.39 157.736L92.6024 156.375L91.5939 155.997L89.7405 157.733L85.6079 161.558ZM84.868 149.194L88.1981 152.435L89.1428 153.327L89.2171 153.764L88.0367 156.309L86.5389 159.62L90.2214 156.22L91.2404 155.255L91.6916 155.157L94.2021 156.083L97.4526 157.247L94.1777 153.916L93.251 153L93.1809 152.571L94.3274 150.073L95.7817 146.822L92.1587 150.139L91.1566 151.079L90.7139 151.18L88.1694 150.3L84.868 149.194Z" fill="#231F20"/>
<path d="M183.027 78.9074L183.312 78.3874L183.452 77.825L183.44 77.2563L183.274 76.7215L182.967 76.2567L182.54 75.8928L182.022 75.6551L181.447 75.5596L180.857 75.6148L180.289 75.8132L179.783 76.1442L179.374 76.5846L179.089 77.1035L178.949 77.6659L178.962 78.2346L179.128 78.7705L179.433 79.2353L179.861 79.5992L180.379 79.8369L180.953 79.9314L181.545 79.8772L182.113 79.6777L182.618 79.3477L183.027 78.9074Z" fill="#C3ACF1"/>
<path d="M179.669 79.9611L179.583 79.9059L179.155 79.543L179.088 79.4666L178.781 79.0008L178.737 78.9085L178.573 78.3737L178.557 78.2729L178.543 77.7041L178.555 77.6001L178.695 77.0377L178.734 76.9369L179.02 76.4181L179.083 76.33L179.492 75.8896L179.576 75.8185L180.082 75.4885L180.181 75.4386L180.749 75.2402L180.855 75.2169L181.446 75.1638L181.553 75.167L182.128 75.2614L182.229 75.2922L182.747 75.5299L182.834 75.5851L183.26 75.949L183.328 76.0254L183.635 76.4902L183.679 76.5825L183.844 77.1184L183.86 77.2192L183.873 77.7869L183.861 77.8919L183.721 78.4543L183.682 78.5541L183.396 79.074L183.334 79.161L182.925 79.6014L182.84 79.6735L182.335 80.0025L182.235 80.0524L181.668 80.2508L181.562 80.2741L180.971 80.3283L180.863 80.3251L180.288 80.2296L180.187 80.1999L179.669 79.9611ZM179.766 78.9605L180.115 79.2576L180.538 79.4518L181.007 79.5282L181.489 79.4847L181.953 79.3223L182.365 79.0528L182.698 78.6931L182.93 78.2686L183.045 77.8102L183.034 77.3465L182.9 76.9094L182.65 76.5305L182.301 76.2334L181.878 76.0403L181.41 75.9628L180.927 76.0063L180.464 76.1687L180.051 76.4393L179.718 76.7979L179.486 77.2224L179.371 77.6808L179.382 78.1445L179.516 78.5817L179.766 78.9605Z" fill="#231F20"/>
<path d="M23.0762 81.0933L23.2396 80.7962L23.3193 80.4757L23.3118 80.151L23.2184 79.8443L23.0422 79.5791L22.798 79.3711L22.5019 79.2353L22.1739 79.1812L21.8363 79.213L21.5115 79.3255L21.2227 79.5143L20.9892 79.7669L20.8268 80.064L20.7461 80.3844L20.7535 80.7091L20.8491 81.0158L21.0232 81.2811L21.2673 81.4891L21.5645 81.6249L21.8915 81.679L22.2291 81.6472L22.5539 81.5347L22.8426 81.3448L23.0762 81.0933Z" fill="#EE4878"/>
<path d="M21.0677 81.851L20.9817 81.7958L20.7375 81.5889L20.6696 81.5125L20.4944 81.2472L20.4509 81.1538L20.3554 80.8482L20.3395 80.7474L20.332 80.4227L20.3448 80.3187L20.4244 79.9961L20.4637 79.8964L20.6271 79.5993L20.6908 79.5123L20.9244 79.2597L21.0082 79.1886L21.297 78.9997L21.3957 78.9509L21.7205 78.8374L21.8267 78.8141L22.1642 78.7822L22.2715 78.7865L22.6005 78.8406L22.7014 78.8724L22.9976 79.0072L23.0835 79.0624L23.3277 79.2703L23.3956 79.3467L23.5708 79.612L23.6132 79.7054L23.7088 80.011L23.7247 80.1118L23.7321 80.4365L23.7215 80.5405L23.6408 80.862L23.6016 80.9628L23.4381 81.2599L23.3744 81.3469L23.1409 81.5984L23.0559 81.6695L22.7683 81.8594L22.6685 81.9083L22.3447 82.0218L22.2386 82.0451L21.901 82.0759L21.7927 82.0717L21.4647 82.0186L21.3638 81.9868L21.0677 81.851ZM21.3479 81.0063L21.5135 81.1474L21.7152 81.2398L21.936 81.2769L22.1653 81.2557L22.3861 81.1782L22.5814 81.0509L22.7407 80.88L22.85 80.6784L22.9052 80.4609L22.8999 80.2402L22.8362 80.0333L22.7173 79.8529L22.5517 79.7128L22.35 79.6205L22.1282 79.5834L21.8999 79.6046L21.6791 79.682L21.4838 79.8094L21.3246 79.9802L21.2142 80.1818L21.1611 80.3994L21.1653 80.6201L21.229 80.827L21.3479 81.0063Z" fill="#231F20"/>
<path d="M58.753 28.7529L58.9154 28.4558L58.9961 28.1354L58.9887 27.8096L58.8931 27.5051L58.719 27.2387L58.4749 27.0308L58.1777 26.8949L57.8496 26.8408L57.5121 26.8727L57.1883 26.9851L56.8985 27.174L56.665 27.4255L56.5026 27.7226L56.4219 28.0441L56.4293 28.3688L56.5248 28.6744L56.6989 28.9408L56.9431 29.1487L57.2403 29.2846L57.5683 29.3387L57.9059 29.3068L58.2297 29.1933L58.5195 29.0055L58.753 28.7529Z" fill="#CAE062"/>
<path d="M56.7474 29.5116L56.6603 29.4564L56.4162 29.2484L56.3482 29.172L56.1731 28.9068L56.1306 28.8145L56.0351 28.5078L56.0191 28.407L56.0117 28.0823L56.0234 27.9783L56.1041 27.6568L56.1434 27.556L56.3058 27.2589L56.3695 27.1719L56.603 26.9204L56.6879 26.8493L56.9767 26.6604L57.0754 26.6105L57.4002 26.497L57.5064 26.4747L57.8439 26.4429L57.9501 26.4471L58.2792 26.5002L58.38 26.532L58.6762 26.6678L58.7622 26.723L59.0063 26.9299L59.0743 27.0074L59.2494 27.2727L59.2929 27.365L59.3885 27.6706L59.4044 27.7714L59.4118 28.0961L59.4002 28.2011L59.3195 28.5226L59.2802 28.6224L59.1167 28.9195L59.053 29.0076L58.8195 29.2591L58.7346 29.3302L58.4469 29.519L58.3482 29.5678L58.0233 29.6814L57.9172 29.7047L57.5796 29.7366L57.4724 29.7323L57.1433 29.6793L57.0425 29.6474L56.7474 29.5116ZM57.0276 28.667L57.1932 28.8081L57.3938 28.8993L57.6168 28.9365L57.845 28.9153L58.0647 28.8389L58.2611 28.7115L58.4193 28.5396L58.5297 28.338L58.5838 28.1205L58.5785 27.9008L58.5148 27.6929L58.3959 27.5125L58.2303 27.3724L58.0297 27.2801L57.8078 27.2429L57.5785 27.2642L57.3588 27.3416L57.1635 27.469L57.0043 27.6409L56.8939 27.8425L56.8408 28.06L56.845 28.2797L56.9087 28.4866L57.0276 28.667Z" fill="#231F20"/>
<path d="M28.3301 107.469L28.4936 107.172L28.5732 106.851L28.5657 106.526L28.4723 106.22L28.2961 105.955L28.052 105.747L27.7558 105.61L27.4278 105.557L27.0902 105.588L26.7654 105.701L26.4766 105.89L26.2431 106.142L26.0807 106.439L26 106.76L26.0074 107.085L26.103 107.391L26.2771 107.656L26.5212 107.864L26.8184 108L27.1454 108.054L27.484 108.023L27.8078 107.91L28.0976 107.721L28.3301 107.469Z" fill="#7248EE"/>
<path d="M26.3205 108.227L26.2345 108.172L25.9904 107.964L25.9224 107.887L25.7473 107.621L25.7048 107.53L25.6093 107.224L25.5934 107.122L25.5859 106.798L25.5966 106.694L25.6772 106.372L25.7165 106.271L25.88 105.974L25.9437 105.887L26.1772 105.636L26.2621 105.564L26.5509 105.375L26.6496 105.326L26.9734 105.212L27.0795 105.189L27.4171 105.158L27.5243 105.162L27.8534 105.216L27.9542 105.247L28.2504 105.383L28.3364 105.438L28.5805 105.645L28.6485 105.722L28.8236 105.987L28.8672 106.08L28.9616 106.386L28.9776 106.487L28.985 106.811L28.9744 106.915L28.8937 107.238L28.8544 107.338L28.6909 107.635L28.6272 107.722L28.3937 107.974L28.3088 108.045L28.0211 108.234L27.9213 108.283L27.5976 108.397L27.4914 108.42L27.1538 108.451L27.0466 108.448L26.7175 108.394L26.6167 108.363L26.3205 108.227ZM26.6008 107.382L26.7664 107.522L26.9681 107.615L27.1899 107.652L27.4182 107.631L27.6379 107.553L27.8343 107.426L27.9935 107.255L28.1028 107.053L28.158 106.836L28.1517 106.615L28.088 106.408L27.9702 106.229L27.8035 106.088L27.6029 105.995L27.381 105.958L27.1517 105.98L26.932 106.057L26.7356 106.184L26.5774 106.355L26.467 106.557L26.4129 106.774L26.4182 106.994L26.4819 107.202L26.6008 107.382Z" fill="#231F20"/>
<path d="M146.866 166.732L147.029 166.436L147.109 166.114L147.102 165.79L147.007 165.484L146.832 165.218L146.588 165.01L146.291 164.874L145.963 164.82L145.625 164.851L145.302 164.965L145.012 165.153L144.778 165.405L144.616 165.702L144.535 166.024L144.544 166.348L144.637 166.655L144.812 166.92L145.056 167.128L145.353 167.264L145.682 167.318L146.019 167.287L146.344 167.174L146.633 166.985L146.866 166.732Z" fill="#C3ACF1"/>
<path d="M144.856 167.491L144.77 167.436L144.526 167.228L144.458 167.152L144.282 166.885L144.239 166.794L144.144 166.487L144.129 166.386L144.121 166.062L144.133 165.958L144.212 165.636L144.252 165.535L144.415 165.239L144.479 165.151L144.712 164.9L144.796 164.829L145.085 164.639L145.185 164.59L145.509 164.476L145.615 164.453L145.952 164.422L146.059 164.427L146.389 164.48L146.489 164.51L146.786 164.647L146.873 164.702L147.117 164.909L147.185 164.987L147.359 165.252L147.402 165.344L147.497 165.65L147.514 165.751L147.521 166.076L147.51 166.181L147.429 166.502L147.39 166.602L147.226 166.899L147.163 166.986L146.93 167.239L146.845 167.31L146.556 167.499L146.456 167.547L146.133 167.661L146.027 167.684L145.689 167.715L145.582 167.712L145.253 167.658L145.152 167.627L144.856 167.491ZM145.136 166.645L145.302 166.787L145.502 166.879L145.724 166.916L145.953 166.895L146.174 166.817L146.369 166.689L146.528 166.519L146.638 166.318L146.692 166.1L146.687 165.879L146.623 165.672L146.504 165.492L146.339 165.352L146.138 165.26L145.916 165.222L145.687 165.244L145.467 165.321L145.272 165.448L145.113 165.619L145.002 165.821L144.948 166.038L144.953 166.259L145.017 166.466L145.136 166.645Z" fill="#231F20"/>
<path d="M191.925 94.388L192.087 94.0908L192.168 93.7693L192.161 93.4446L192.066 93.139L191.891 92.8737L191.647 92.6658L191.351 92.5299L191.022 92.4758L190.684 92.5077L190.36 92.6201L190.071 92.809L189.838 93.0605L189.674 93.3576L189.594 93.6791L189.602 94.0038L189.697 94.3094L189.871 94.5758L190.116 94.7837L190.412 94.9196L190.74 94.9737L191.078 94.9418L191.403 94.8294L191.691 94.6405L191.925 94.388Z" fill="#F7B3C7"/>
<path d="M189.915 95.1456L189.828 95.0905L189.584 94.8835L189.516 94.8061L189.341 94.5408L189.298 94.4485L189.203 94.1429L189.187 94.0421L189.18 93.7163L189.191 93.6123L189.272 93.2908L189.311 93.1911L189.474 92.894L189.537 92.8059L189.771 92.5544L189.856 92.4833L190.145 92.2944L190.243 92.2456L190.568 92.1321L190.674 92.1087L191.012 92.0769L191.119 92.0811L191.447 92.1353L191.548 92.1671L191.844 92.3019L191.931 92.357L192.175 92.565L192.243 92.6414L192.418 92.9067L192.462 92.999L192.556 93.3046L192.572 93.4065L192.58 93.7312L192.568 93.8352L192.487 94.1567L192.448 94.2575L192.286 94.5546L192.222 94.6416L191.989 94.8931L191.904 94.9642L191.615 95.1531L191.516 95.2029L191.191 95.3165L191.085 95.3398L190.748 95.3706L190.64 95.3663L190.312 95.3133L190.212 95.2815L189.915 95.1456ZM190.195 94.301L190.36 94.4421L190.562 94.5344L190.784 94.5705L191.013 94.5493L191.233 94.4729L191.428 94.3445L191.586 94.1747L191.697 93.9731L191.752 93.7545L191.746 93.5338L191.682 93.3269L191.564 93.1465L191.398 93.0064L191.197 92.9141L190.975 92.877L190.745 92.8982L190.526 92.9757L190.33 93.103L190.172 93.2738L190.062 93.4754L190.007 93.693L190.012 93.9137L190.076 94.1206L190.195 94.301Z" fill="#231F20"/>
<path d="M68.7487 65.7963L69.5533 64.0348L69.8145 62.1535L69.6871 60.2859L69.2232 58.4894L68.3931 56.8468L67.0938 55.5449L68.8644 56.1943L70.7985 56.3099L72.7486 56.051L74.6466 55.4695L76.4141 54.5464L77.862 53.1924L77.0573 54.9538L76.7962 56.8352L76.9236 58.7038L77.3875 60.4992L78.2176 62.1429L79.5169 63.4448L77.7463 62.7944L75.8111 62.6787L73.8621 62.9387L71.9641 63.5191L70.1956 64.4433L68.7487 65.7963Z" fill="white"/>
<path d="M68.3789 65.6584L69.1581 63.9521L69.4065 62.1695L69.2844 60.3741L68.8386 58.6508L68.0509 57.0931L66.793 55.8315L67.2707 55.1704L68.9861 55.7996L70.8194 55.9089L72.6919 55.6596L74.5146 55.1025L76.1897 54.226L77.5909 52.9155L78.2448 53.3304L77.4646 55.0377L77.2173 56.8204L77.3394 58.6137L77.7852 60.338L78.5718 61.8957L79.8308 63.1563L79.3531 63.8184L77.6366 63.1892L75.8033 63.0799L73.9308 63.3293L72.1081 63.8874L70.434 64.7628L69.0318 66.0733L68.3789 65.6584ZM68.7165 56.5721L68.7738 56.6506L69.6315 58.3665L70.1071 60.2298L70.2313 62.178L69.9702 64.0593L69.9415 64.1569L70.0264 64.0954L71.8714 63.1404L73.8416 62.543L75.8734 62.2809L77.8075 62.3955L77.9062 62.4167L77.85 62.3382L76.9922 60.6213L76.5167 58.7591L76.3925 56.8109L76.6536 54.9295L76.6823 54.8319L76.5973 54.8934L74.7513 55.8484L72.7822 56.4458L70.7504 56.7079L68.8163 56.5933L68.7165 56.5721Z" fill="#231F20"/>
</svg>
