<svg width="155" height="191" viewBox="0 0 155 191" fill="none" xmlns="http://www.w3.org/2000/svg">
<g clip-path="url(#clip0_1_88674)">
<path d="M116.714 151.175C116.714 149.817 99.5531 148.723 78.383 148.723C57.2129 148.723 40.0518 149.826 40.0518 151.175C40.0518 152.534 57.2129 153.629 78.383 153.629C99.5531 153.629 116.714 152.526 116.714 151.175Z" fill="#231F20"/>
<path d="M78.3816 154.115C68.1364 154.115 58.5 153.859 51.255 153.399C47.7254 153.176 44.9477 152.904 43.0074 152.617C42.0126 152.468 41.2395 152.303 40.7161 152.139C40.1506 151.958 39.6211 151.719 39.6211 151.176C39.6211 150.625 40.1436 150.386 40.7161 150.213C41.2395 150.049 42.0126 149.892 43.0074 149.736C44.9477 149.44 47.7254 149.175 51.255 148.954C58.5 148.492 68.1364 148.237 78.3816 148.237C88.6267 148.237 98.2631 148.492 105.508 148.954C109.038 149.175 111.815 149.44 113.756 149.736C114.751 149.883 115.525 150.049 116.047 150.213C116.613 150.393 117.142 150.632 117.142 151.176C117.142 151.727 116.62 151.966 116.047 152.139C115.525 152.303 114.751 152.459 113.756 152.617C111.815 152.913 109.038 153.176 105.508 153.399C98.2631 153.859 88.6267 154.115 78.3816 154.115ZM40.8454 151.176C41.74 151.473 44.3813 152.007 52.1355 152.476C59.2661 152.904 68.5877 153.143 78.3816 153.143C88.1755 153.143 97.497 152.904 104.628 152.476C112.381 152.007 115.016 151.473 115.918 151.176C115.023 150.879 112.381 150.345 104.628 149.876C97.497 149.447 88.1755 149.208 78.3816 149.208C68.5877 149.208 59.2661 149.447 52.1355 149.876C44.3822 150.345 41.74 150.871 40.8454 151.176Z" fill="#231F20"/>
<path d="M94.9133 32.3882H60.577C55.0498 32.3882 50.5605 37.542 50.5605 43.9044V139.396C50.5605 145.751 55.0428 150.912 60.577 150.912H94.9133C100.44 150.912 104.929 145.759 104.929 139.396V43.8959C104.922 37.5409 100.44 32.3882 94.9133 32.3882Z" fill="#231F20"/>
<path d="M94.9149 151.234H60.5787C54.902 151.234 50.2764 145.924 50.2764 139.388V43.8959C50.2764 37.369 54.8941 32.0518 60.5787 32.0518H94.9149C100.593 32.0518 105.217 37.3605 105.217 43.8959V139.388C105.217 145.924 100.593 151.234 94.9149 151.234ZM60.5787 32.7181C55.2169 32.7181 50.8569 37.7308 50.8569 43.8959V139.388C50.8569 145.553 55.2169 150.566 60.5787 150.566H94.9149C100.278 150.566 104.638 145.553 104.638 139.388V43.8959C104.638 37.7308 100.278 32.7181 94.9149 32.7181H60.5787Z" fill="#231F20"/>
<path d="M103.025 44.1676V139.117C103.025 144.418 99.2876 148.715 94.6769 148.715H60.8138C56.2032 148.715 52.458 144.418 52.458 139.117V44.1686C52.458 38.8673 56.2032 34.5698 60.8138 34.5698H94.6769C99.2876 34.5698 103.025 38.8673 103.025 44.1676Z" fill="white"/>
<path d="M94.7527 149.452H60.8887C56.1277 149.452 52.2471 144.999 52.2471 139.525V44.5678C52.2471 39.0946 56.1207 34.6411 60.8887 34.6411H94.7527C99.5129 34.6411 103.386 39.0946 103.386 44.5678V139.517C103.393 144.999 99.5129 149.452 94.7527 149.452ZM60.8887 35.299C56.4426 35.299 52.8276 39.4564 52.8276 44.5678V139.517C52.8276 144.628 56.4426 148.785 60.8887 148.785H94.7527C99.198 148.785 102.814 144.628 102.814 139.517V44.5689C102.814 39.4564 99.198 35.299 94.7527 35.299H60.8887Z" fill="#231F20"/>
<path d="M78.4051 38.4142C78.4051 37.994 78.1113 37.665 77.7533 37.665C77.3883 37.665 77.1016 38.0025 77.1016 38.4142C77.1016 38.8259 77.3953 39.1633 77.7533 39.1633C78.1113 39.1633 78.4051 38.8259 78.4051 38.4142Z" fill="#231F20"/>
<path d="M77.7445 39.5008C77.222 39.5008 76.7998 39.0148 76.7998 38.4142C76.7998 37.8136 77.222 37.3276 77.7445 37.3276C78.2669 37.3276 78.6891 37.8136 78.6891 38.4142C78.6891 39.0148 78.2669 39.5008 77.7445 39.5008ZM77.7445 37.994C77.65 37.9917 77.5585 38.0346 77.4902 38.1134C77.4218 38.1921 77.382 38.3002 77.3794 38.4142C77.3794 38.6445 77.5439 38.8344 77.7445 38.8344C77.839 38.8367 77.9304 38.7938 77.9988 38.7151C78.0671 38.6364 78.1069 38.5282 78.1095 38.4142C78.1069 38.3002 78.0671 38.1921 77.9988 38.1134C77.9304 38.0346 77.839 37.9917 77.7445 37.994Z" fill="#231F20"/>
<path d="M61.6747 137.413L65.3829 139.874C65.9915 140.277 66.7576 139.775 66.7576 138.96V134.037C66.7576 133.222 65.9924 132.721 65.3829 133.124L61.6747 135.586C61.059 135.997 61.059 137.01 61.6747 137.413Z" fill="white"/>
<path d="M65.8383 140.352C65.6307 140.352 65.4232 140.286 65.2376 140.162L61.5285 137.701C61.3468 137.586 61.1948 137.414 61.0889 137.202C60.983 136.99 60.9272 136.747 60.9277 136.499C60.9277 135.997 61.1494 135.544 61.5285 135.298L65.2376 132.836C65.6167 132.582 66.0679 132.582 66.447 132.836C66.827 133.084 67.0486 133.537 67.0486 134.039V138.961C67.0486 139.463 66.8199 139.908 66.447 140.162C66.2535 140.286 66.0459 140.352 65.8383 140.352ZM65.8383 133.314C65.7282 133.314 65.6199 133.348 65.5234 133.412L61.8152 135.874C61.7201 135.933 61.6403 136.023 61.5848 136.133C61.5292 136.243 61.5 136.37 61.5003 136.499C61.5003 136.762 61.6147 136.994 61.8152 137.125L65.5234 139.586C65.6198 139.651 65.7284 139.685 65.8388 139.685C65.9491 139.685 66.0577 139.651 66.1541 139.586C66.2492 139.527 66.329 139.437 66.3845 139.327C66.4401 139.217 66.4693 139.09 66.469 138.961V134.039C66.4694 133.909 66.4402 133.782 66.3846 133.672C66.3291 133.561 66.2493 133.472 66.1541 133.412C66.0574 133.348 65.9488 133.314 65.8383 133.314Z" fill="#231F20"/>
<path d="M93.8193 135.586L90.1111 133.124C89.5024 132.721 88.7363 133.224 88.7363 134.039V138.96C88.7363 139.775 89.5024 140.278 90.1111 139.874L93.8193 137.413C94.435 137.01 94.435 135.997 93.8193 135.586Z" fill="white"/>
<path d="M89.6545 140.351C89.444 140.35 89.2372 140.285 89.0529 140.162C88.8712 140.047 88.7192 139.874 88.6133 139.662C88.5074 139.45 88.4516 139.207 88.4522 138.96V134.037C88.4522 133.536 88.6808 133.082 89.0529 132.836C89.2374 132.715 89.4443 132.651 89.6545 132.651C89.8648 132.651 90.0716 132.715 90.2561 132.836L93.9644 135.297C94.3443 135.553 94.566 135.997 94.566 136.499C94.566 137.001 94.3364 137.446 93.9644 137.7L90.2561 140.162C90.0719 140.285 89.865 140.35 89.6545 140.351ZM89.6545 133.314C89.5444 133.314 89.4361 133.348 89.3396 133.412C89.2445 133.472 89.1648 133.561 89.1092 133.671C89.0536 133.782 89.0244 133.908 89.0247 134.037V138.96C89.0247 139.223 89.1391 139.454 89.3396 139.586C89.5331 139.718 89.7689 139.718 89.9694 139.586L93.6785 137.124C93.7738 137.065 93.8537 136.975 93.9095 136.865C93.9653 136.755 93.9948 136.628 93.9948 136.499C93.9948 136.369 93.9653 136.243 93.9095 136.132C93.8537 136.022 93.7738 135.932 93.6785 135.873L89.9694 133.412C89.8733 133.347 89.7648 133.313 89.6545 133.314Z" fill="#231F20"/>
<path d="M103.025 111.624V139.124C103.025 144.426 99.2876 148.722 94.6769 148.722H60.8138C56.2032 148.722 52.458 144.426 52.458 139.124V88.6909C52.8207 88.534 53.2049 88.4616 53.59 88.4776C62.7964 88.7567 60.148 121.543 69.598 121.543C78.3822 121.543 77.6592 88.4033 86.2076 88.4033C94.5837 88.4033 94.749 110.743 103.025 111.624Z" fill="#B8B8B8"/>
<path d="M94.6776 149.134H60.8145C56.0103 149.134 52.1016 144.64 52.1016 139.117V88.3958L52.3373 88.296C52.7524 88.1231 53.1746 88.0414 53.6039 88.0573C55.8028 88.1231 57.5566 89.91 58.9525 93.5146C60.1557 96.6258 61.0001 100.792 61.8163 104.825C63.4417 112.842 65.1235 121.131 69.5987 121.131C73.744 121.131 75.7485 112.776 77.6809 104.701C78.6546 100.643 79.6573 96.4539 80.9388 93.3501C82.4209 89.753 84.1466 88 86.2012 88C90.6826 88 92.9096 93.9762 95.0646 99.7539C97.0902 105.187 99.188 110.809 103.054 111.22L103.383 111.253V139.133C103.39 144.64 99.4817 149.134 94.6776 149.134ZM52.8246 88.9879V139.117C52.8246 144.179 56.4114 148.303 60.8145 148.303H94.6776C99.0806 148.303 102.667 144.187 102.667 139.117V111.986C98.5863 111.279 96.4604 105.582 94.4058 100.067C93.36 97.2518 92.272 94.3465 90.9623 92.2306C89.5225 89.9015 88.0122 88.8234 86.2083 88.8234C82.2415 88.8234 80.28 97.0046 78.3828 104.915C77.3951 109.04 76.3713 113.303 75.0537 116.48C73.5215 120.168 71.7395 121.954 69.6057 121.954C67.3144 121.954 65.4964 120.176 64.0574 116.505C62.8111 113.352 61.9526 109.106 61.1215 105.005C59.525 97.1447 57.8785 89.0123 53.5898 88.8892C53.3322 88.8804 53.0748 88.9136 52.8246 88.9879Z" fill="#131111"/>
<path d="M80.8681 136.499C80.8681 134.516 79.4714 132.911 77.7466 132.911C76.0209 132.911 74.625 134.516 74.625 136.499C74.625 138.484 76.0209 140.088 77.7466 140.088C79.4714 140.088 80.8681 138.484 80.8681 136.499Z" fill="white"/>
<path d="M77.7443 140.418C75.8612 140.418 74.3369 138.664 74.3369 136.499C74.3369 134.334 75.8691 132.582 77.7443 132.582C79.6204 132.582 81.1526 134.343 81.1526 136.499C81.1526 138.664 79.6275 140.418 77.7443 140.418ZM77.7443 133.248C76.184 133.248 74.9165 134.705 74.9165 136.499C74.9165 138.294 76.184 139.75 77.7443 139.75C79.3056 139.75 80.5721 138.294 80.5721 136.499C80.5721 134.705 79.3056 133.248 77.7443 133.248Z" fill="#231F20"/>
<path d="M61.6747 137.413L65.3829 139.874C65.9915 140.277 66.7576 139.775 66.7576 138.96V134.037C66.7576 133.222 65.9924 132.721 65.3829 133.124L61.6747 135.586C61.059 135.997 61.059 137.01 61.6747 137.413Z" fill="white"/>
<path d="M65.8383 140.352C65.6307 140.352 65.4232 140.286 65.2376 140.162L61.5285 137.701C61.3468 137.586 61.1948 137.414 61.0889 137.202C60.983 136.99 60.9272 136.747 60.9277 136.499C60.9277 135.997 61.1494 135.544 61.5285 135.298L65.2376 132.836C65.6167 132.582 66.0679 132.582 66.447 132.836C66.827 133.084 67.0486 133.537 67.0486 134.039V138.961C67.0486 139.463 66.8199 139.908 66.447 140.162C66.2535 140.286 66.0459 140.352 65.8383 140.352ZM65.8383 133.314C65.7282 133.314 65.6199 133.348 65.5234 133.412L61.8152 135.874C61.7201 135.933 61.6403 136.023 61.5848 136.133C61.5292 136.243 61.5 136.37 61.5003 136.499C61.5003 136.762 61.6147 136.994 61.8152 137.125L65.5234 139.586C65.6198 139.651 65.7284 139.685 65.8388 139.685C65.9491 139.685 66.0577 139.651 66.1541 139.586C66.2492 139.527 66.329 139.437 66.3845 139.327C66.4401 139.217 66.4693 139.09 66.469 138.961V134.039C66.4694 133.909 66.4402 133.782 66.3846 133.672C66.3291 133.561 66.2493 133.472 66.1541 133.412C66.0574 133.348 65.9488 133.314 65.8383 133.314Z" fill="#231F20"/>
<path d="M93.8193 135.586L90.1111 133.124C89.5024 132.721 88.7363 133.224 88.7363 134.039V138.96C88.7363 139.775 89.5024 140.278 90.1111 139.874L93.8193 137.413C94.435 137.01 94.435 135.997 93.8193 135.586Z" fill="white"/>
<path d="M89.6545 140.351C89.444 140.35 89.2372 140.285 89.0529 140.162C88.8712 140.047 88.7192 139.874 88.6133 139.662C88.5074 139.45 88.4516 139.207 88.4522 138.96V134.037C88.4522 133.536 88.6808 133.082 89.0529 132.836C89.2374 132.715 89.4443 132.651 89.6545 132.651C89.8648 132.651 90.0716 132.715 90.2561 132.836L93.9644 135.297C94.3443 135.553 94.566 135.997 94.566 136.499C94.566 137.001 94.3364 137.446 93.9644 137.7L90.2561 140.162C90.0719 140.285 89.865 140.35 89.6545 140.351ZM89.6545 133.314C89.5444 133.314 89.4361 133.348 89.3396 133.412C89.2445 133.472 89.1648 133.561 89.1092 133.671C89.0536 133.782 89.0244 133.908 89.0247 134.037V138.96C89.0247 139.223 89.1391 139.454 89.3396 139.586C89.5331 139.718 89.7689 139.718 89.9694 139.586L93.6785 137.124C93.7738 137.065 93.8537 136.975 93.9095 136.865C93.9653 136.755 93.9948 136.628 93.9948 136.499C93.9948 136.369 93.9653 136.243 93.9095 136.132C93.8537 136.022 93.7738 135.932 93.6785 135.873L89.9694 133.412C89.8733 133.347 89.7648 133.313 89.6545 133.314Z" fill="#231F20"/>
<path d="M92.0791 60.7296H61.459V52.3086H92.0791V60.7296Z" fill="#5F005F"/>
<path d="M92.0765 61.2228H61.4564C61.347 61.2256 61.2412 61.1761 61.1621 61.085C61.0829 60.9939 61.0369 60.8687 61.0342 60.7368V52.3084C61.0369 52.1765 61.0829 52.0513 61.1621 51.9602C61.2412 51.8691 61.347 51.8196 61.4564 51.8224H92.0765C92.186 51.8193 92.2921 51.8687 92.3714 51.9598C92.4507 52.0509 92.4968 52.1763 92.4996 52.3084V60.7294C92.5066 61.001 92.3131 61.2228 92.0765 61.2228ZM61.8786 60.2434H91.6543V52.7944H61.8786V60.2434Z" fill="#231F20"/>
<path d="M86.934 69.1579H61.4619V60.7295H86.934V69.1579Z" fill="#5F005F"/>
<path d="M86.9293 69.6439H61.4564C61.347 69.6468 61.2412 69.5972 61.1621 69.5061C61.0829 69.415 61.0369 69.2898 61.0342 69.1579V60.7295C61.0369 60.5976 61.0829 60.4724 61.1621 60.3813C61.2412 60.2902 61.347 60.2407 61.4564 60.2435H86.9293C87.165 60.2435 87.3515 60.4664 87.3515 60.7295V69.1579C87.3507 69.2235 87.3391 69.2881 87.3174 69.3482C87.2956 69.4083 87.2642 69.4625 87.2249 69.5077C87.1856 69.553 87.1392 69.5883 87.0885 69.6117C87.0377 69.6351 86.9836 69.646 86.9293 69.6439ZM61.8794 68.673H86.5001V61.224H61.8786L61.8794 68.673Z" fill="#231F20"/>
<path d="M90.8407 77.5789H61.459V69.158H90.8407V77.5789Z" fill="#480048"/>
<path d="M90.8381 78.0734H61.4564C61.347 78.0762 61.2412 78.0267 61.1621 77.9356C61.0829 77.8445 61.0369 77.7193 61.0342 77.5874V69.1579C61.0372 69.0262 61.0833 68.9012 61.1624 68.8104C61.2415 68.7195 61.3472 68.6701 61.4564 68.673H90.8381C91.0747 68.673 91.2603 68.8958 91.2603 69.1579V77.5789C91.2682 77.8505 91.0747 78.0734 90.8381 78.0734ZM61.8786 77.0929H90.4159V69.6439H61.8786V77.0929Z" fill="#231F20"/>
<path d="M61.4564 82.8546C61.3472 82.8575 61.2415 82.8081 61.1624 82.7172C61.0833 82.6264 61.0372 82.5014 61.0342 82.3697V47.4103C61.0372 47.2786 61.0833 47.1537 61.1624 47.0628C61.2415 46.972 61.3472 46.9226 61.4564 46.9254C61.6851 46.9254 61.8786 47.1482 61.8786 47.4103V82.3612C61.8779 82.4271 61.8664 82.4922 61.8448 82.5527C61.8231 82.6133 61.7918 82.668 61.7526 82.7139C61.7133 82.7598 61.6669 82.7958 61.6161 82.82C61.5653 82.8441 61.511 82.8559 61.4564 82.8546Z" fill="#231F20"/>
<path d="M128.756 50.8357L130.288 53.8482L133.86 51.4522L108.409 93.0286L99.8178 77.7104L81.6118 110.48L73.9016 96.9059L62.3389 118.868L64.938 120.678L74.0018 103.467L81.6408 116.916L99.8328 84.1726L108.302 99.2765L136.503 53.2136L135.78 58.1616L138.772 58.7378L141.148 42.5293L128.756 50.8357Z" fill="#5F005F"/>
<path d="M64.938 121.017C64.8854 121.015 64.834 120.998 64.7884 120.967L62.1893 119.157C62.1571 119.135 62.1289 119.106 62.1067 119.07C62.0844 119.035 62.0685 118.994 62.06 118.951C62.0501 118.908 62.0481 118.862 62.0542 118.818C62.0603 118.774 62.0743 118.732 62.0952 118.695L73.6579 96.7342C73.684 96.6851 73.7201 96.6449 73.7628 96.6174C73.8054 96.5899 73.8532 96.576 73.9016 96.5771H73.9086C74.0089 96.5771 74.0951 96.6355 74.1522 96.7257L81.6127 109.871L99.5821 77.5387C99.6082 77.4896 99.6443 77.4494 99.687 77.4219C99.7296 77.3944 99.7774 77.3805 99.8257 77.3816C99.926 77.3816 100.012 77.44 100.069 77.5302L108.416 92.4367L132.866 52.5145L130.439 54.1444C130.373 54.1895 130.295 54.2018 130.221 54.1789C130.148 54.1559 130.084 54.0994 130.045 54.0213L128.513 51.0077C128.495 50.9698 128.482 50.9277 128.477 50.884C128.472 50.8402 128.475 50.7957 128.484 50.753C128.506 50.6656 128.555 50.5918 128.621 50.5472L140.999 42.2504C141.046 42.2186 141.1 42.2034 141.155 42.2064C141.209 42.2094 141.262 42.2305 141.307 42.2673C141.4 42.3416 141.443 42.4647 141.428 42.5963L139.051 58.8037C139.037 58.8917 138.994 58.9694 138.933 59.0201C138.871 59.0708 138.796 59.0907 138.723 59.0753L135.729 58.4992C135.656 58.4847 135.59 58.4378 135.544 58.3676C135.522 58.3327 135.506 58.2927 135.498 58.2502C135.489 58.2077 135.488 58.1635 135.494 58.1203L136.009 54.6134L108.539 99.4835C108.51 99.5289 108.474 99.5652 108.431 99.5894C108.389 99.6137 108.342 99.625 108.295 99.6225C108.249 99.6225 108.203 99.6089 108.162 99.5831C108.121 99.5572 108.086 99.5198 108.059 99.474L99.8328 84.8062L81.8774 117.098C81.8513 117.147 81.8152 117.187 81.7725 117.215C81.7299 117.242 81.6821 117.256 81.6338 117.255C81.5864 117.255 81.5397 117.241 81.4974 117.216C81.4551 117.19 81.4184 117.152 81.3901 117.106L74.0018 104.1L65.1816 120.861C65.1555 120.91 65.1194 120.95 65.0767 120.977C65.0341 121.005 64.9863 121.018 64.938 121.017ZM62.7399 118.761L64.8447 120.226L73.7582 103.294C73.7844 103.245 73.8206 103.205 73.8632 103.178C73.9059 103.15 73.9536 103.137 74.0018 103.138C74.0496 103.135 74.0972 103.148 74.1399 103.174C74.1826 103.2 74.2189 103.238 74.2455 103.287L81.6338 116.308L99.5821 83.9998C99.6083 83.9509 99.6445 83.9109 99.6871 83.8836C99.7297 83.8563 99.7775 83.8426 99.8257 83.8438C99.926 83.8438 100.012 83.9011 100.069 83.9923L108.309 98.6834L136.26 53.0238C136.299 52.9629 136.354 52.9189 136.416 52.8982C136.477 52.8776 136.543 52.8815 136.603 52.9092C136.663 52.9347 136.713 52.9853 136.744 53.0516C136.776 53.118 136.787 53.1958 136.775 53.2711L136.094 57.889L138.522 58.358L140.748 43.1799L129.15 50.9493L130.389 53.3941L133.711 51.1722C133.768 51.1337 133.834 51.1193 133.899 51.1312C133.964 51.1431 134.024 51.1807 134.069 51.238C134.113 51.2916 134.14 51.3631 134.144 51.439C134.148 51.5149 134.129 51.5898 134.09 51.6497L108.639 93.2261C108.611 93.2717 108.574 93.3083 108.532 93.3327C108.489 93.3571 108.442 93.3686 108.395 93.3662C108.349 93.3661 108.303 93.3525 108.262 93.3267C108.221 93.3008 108.185 93.2634 108.159 93.2176L99.8117 78.3271L81.8484 110.66C81.8222 110.709 81.7861 110.749 81.7434 110.777C81.7008 110.804 81.653 110.817 81.6048 110.816C81.5576 110.816 81.5111 110.803 81.4689 110.777C81.4268 110.751 81.3902 110.714 81.362 110.669L73.9086 97.5396L62.7399 118.761Z" fill="#300030"/>
<path d="M67.4735 119.756C67.4665 117.015 65.5261 114.801 63.1417 114.817C60.758 114.833 58.8318 117.056 58.8468 119.797C58.8538 122.538 60.7941 124.753 63.1777 124.736C65.5613 124.728 67.4876 122.497 67.4735 119.756Z" fill="#F7B3C7"/>
<path d="M63.1545 125.074C61.951 125.083 60.7906 124.535 59.9116 123.543C59.4855 123.065 59.145 122.487 58.9112 121.844C58.6773 121.201 58.555 120.508 58.5518 119.806C58.5439 116.892 60.5985 114.506 63.1334 114.489H63.1545C65.6824 114.489 67.7441 116.852 67.7581 119.757C67.7652 121.172 67.2858 122.498 66.4265 123.503C65.5601 124.506 64.4079 125.058 63.1765 125.066C63.1695 125.074 63.1616 125.074 63.1545 125.074ZM63.1616 115.147H63.1475C60.9284 115.156 59.1314 117.246 59.1384 119.798C59.1429 120.412 59.2506 121.017 59.4548 121.579C59.6591 122.141 59.9557 122.646 60.3267 123.065C61.0944 123.934 62.109 124.415 63.1616 124.408H63.1765C64.2337 124.407 65.2506 123.918 66.0184 123.041C66.7774 122.16 67.1926 121 67.1855 119.765C67.1785 117.213 65.3736 115.147 63.1616 115.147Z" fill="#231F20"/>
<path d="M84.6332 164.277L84.8689 163.757L84.9859 163.195L84.9744 162.626L84.8381 162.091L84.5839 161.625L84.2295 161.262L83.8002 161.025L83.3244 160.929L82.8345 160.984L82.3639 161.183L81.9452 161.514L81.6066 161.954L81.3709 162.473L81.2539 163.036L81.2653 163.604L81.4017 164.139L81.6559 164.605L82.0103 164.968L82.4396 165.207L82.9154 165.301L83.4053 165.247L83.8759 165.047L84.2945 164.717L84.6332 164.277Z" fill="#CAE062"/>
<path d="M81.8434 165.331L81.7721 165.276L81.4177 164.912L81.3614 164.836L81.1072 164.37L81.0711 164.279L80.9348 163.743L80.9216 163.642L80.9102 163.074L80.9198 162.97L81.0368 162.407L81.0694 162.306L81.3051 161.788L81.3578 161.701L81.6965 161.26L81.766 161.188L82.1855 160.858L82.2673 160.809L82.7379 160.61L82.8258 160.587L83.3158 160.532L83.4046 160.536L83.8804 160.631L83.9649 160.662L84.3941 160.9L84.4653 160.955L84.8198 161.319L84.8761 161.395L85.1294 161.861L85.1655 161.952L85.3027 162.488L85.3159 162.589L85.3273 163.156L85.3167 163.261L85.2007 163.824L85.1681 163.925L84.9324 164.443L84.8796 164.53L84.541 164.972L84.4706 165.043L84.0519 165.373L83.9701 165.422L83.4996 165.621L83.4116 165.645L82.9217 165.699L82.8329 165.695L82.357 165.6L82.2735 165.569L81.8442 165.332L81.8434 165.331ZM81.9243 164.33L82.2128 164.627L82.5637 164.821L82.9516 164.899L83.3509 164.854L83.7353 164.692L84.0766 164.422L84.3528 164.063L84.5454 163.639L84.6404 163.18L84.6316 162.716L84.5199 162.28L84.3132 161.9L84.0238 161.604L83.6737 161.409L83.285 161.332L82.8856 161.376L82.5013 161.538L82.16 161.808L81.8838 162.167L81.6903 162.591L81.5962 163.05L81.605 163.514L81.7158 163.95L81.9243 164.33Z" fill="#231F20"/>
<path d="M58.2445 12.9806L58.4811 12.4607L58.5972 11.8983L58.5858 11.3295L58.4494 10.7947L58.1953 10.3289L57.8417 9.966L57.4116 9.72831L56.9366 9.63281L56.4458 9.68799L55.9752 9.88642L55.5566 10.2175L55.2179 10.6578L54.9822 11.1767L54.8652 11.7391L54.8767 12.3079L55.013 12.8437L55.2672 13.3085L55.6217 13.6714L56.0509 13.9102L56.5258 14.0046L57.0166 13.9505L57.4872 13.751L57.9059 13.421L58.2445 12.9806Z" fill="#7248EE"/>
<path d="M55.4557 14.0342L55.3844 13.979L55.03 13.6161L54.9737 13.5397L54.7195 13.0739L54.6843 12.9816L54.5471 12.4468L54.533 12.346L54.5225 11.7772L54.5321 11.6732L54.6482 11.1108L54.6808 11.01L54.9174 10.4911L54.9702 10.4031L55.3088 9.9627L55.3792 9.89161L55.7978 9.5616L55.8796 9.51279L56.3502 9.3133L56.4381 9.28996L56.9272 9.23584L57.0169 9.24008L57.4919 9.33558L57.5763 9.3653L58.0055 9.60298L58.0776 9.65816L58.4312 10.0211L58.4875 10.0985L58.7426 10.5633L58.7778 10.6556L58.915 11.1904L58.9282 11.2912L58.9387 11.86L58.9299 11.964L58.813 12.5263L58.7804 12.6272L58.5438 13.1471L58.491 13.2341L58.1533 13.6745L58.0829 13.7456L57.6642 14.0766L57.5816 14.1254L57.1119 14.3239L57.0239 14.3472L56.534 14.4013L56.4452 14.3981L55.9693 14.3026L55.8849 14.2719L55.4557 14.0342ZM55.5366 13.0336L55.8251 13.3307L56.1752 13.5238L56.563 13.6023L56.9632 13.5577L57.3476 13.3954L57.6889 13.1248L57.9651 12.7662L58.1586 12.3428L58.2527 11.8833L58.2439 11.4196L58.1322 10.9824L57.9246 10.6036L57.6361 10.3065L57.286 10.1134L56.8982 10.0359L56.4979 10.0794L56.1136 10.2418L55.7723 10.5113L55.4961 10.8721L55.3026 11.2944L55.2085 11.7539L55.2173 12.2176L55.329 12.6547L55.5366 13.0336Z" fill="#231F20"/>
<path d="M96.894 155.021C96.8819 155.012 96.8705 155.001 96.8597 154.99L96.7277 154.855C96.7065 154.833 96.6879 154.807 96.6723 154.779L96.5782 154.606C96.5624 154.578 96.55 154.546 96.5413 154.514L96.4911 154.314C96.4825 154.282 96.4777 154.248 96.4771 154.213L96.4727 154.002C96.4727 153.967 96.4753 153.932 96.4832 153.897L96.5263 153.687C96.5338 153.653 96.5447 153.62 96.5588 153.588L96.6468 153.395C96.6615 153.363 96.6792 153.333 96.6996 153.306L96.8254 153.143C96.8462 153.116 96.8695 153.092 96.8948 153.072L97.0514 152.949C97.077 152.929 97.1045 152.912 97.1332 152.9L97.3091 152.826L97.3522 152.811L113.46 148.564C113.474 148.561 113.489 148.558 113.504 148.556L113.687 148.535C113.716 148.532 113.746 148.534 113.775 148.54L113.953 148.575C113.982 148.581 114.009 148.591 114.036 148.606L114.196 148.695C114.222 148.708 114.246 148.726 114.267 148.749L114.399 148.885C114.421 148.907 114.44 148.932 114.455 148.961L114.55 149.135C114.566 149.163 114.578 149.194 114.585 149.226L114.636 149.426C114.645 149.459 114.65 149.493 114.651 149.527L114.655 149.739C114.655 149.774 114.651 149.809 114.644 149.843L114.601 150.052C114.594 150.087 114.583 150.121 114.569 150.153L114.481 150.346C114.466 150.377 114.449 150.407 114.428 150.433L114.302 150.597C114.281 150.625 114.258 150.648 114.232 150.668L114.076 150.791C114.051 150.811 114.023 150.828 113.994 150.84L113.819 150.914C113.805 150.92 113.79 150.925 113.775 150.929L97.668 155.175C97.6536 155.179 97.6388 155.182 97.624 155.183L97.4419 155.203C97.412 155.207 97.3819 155.206 97.3522 155.2L97.1754 155.164C97.1466 155.159 97.1185 155.149 97.0919 155.135L96.9318 155.045C96.9187 155.038 96.9061 155.03 96.894 155.021Z" fill="#EE4878"/>
<path d="M114.027 149.058L114.159 149.193L114.254 149.366L114.304 149.566L114.308 149.777L114.265 149.987L114.177 150.18L114.051 150.344L113.895 150.467L113.72 150.541L111.036 151.249L108.353 151.956L105.668 152.664L102.984 153.371L100.298 154.08L97.6117 154.788L97.4296 154.808L97.2528 154.772L97.0927 154.684L96.9608 154.548L96.8658 154.375L96.8148 154.176L96.8113 153.964L96.8544 153.755L96.9423 153.561L97.069 153.397L97.2247 153.274L97.3997 153.2L100.083 152.492L102.767 151.786L105.452 151.078L108.136 150.37L110.822 149.662L113.508 148.954L113.69 148.933L113.867 148.969L114.027 149.058ZM114.432 148.382C114.408 148.363 114.383 148.346 114.358 148.332L114.198 148.244C114.144 148.214 114.088 148.193 114.03 148.182L113.854 148.146C113.795 148.135 113.735 148.132 113.675 148.139L113.492 148.159C113.462 148.162 113.433 148.168 113.403 148.176L110.718 148.883L108.032 149.592L105.348 150.299L102.663 151.007L99.9795 151.715L97.2959 152.422C97.2663 152.429 97.2372 152.439 97.2088 152.452L97.0338 152.525C96.9757 152.549 96.9204 152.583 96.8693 152.624L96.7136 152.747C96.6622 152.787 96.6152 152.835 96.5738 152.889L96.4471 153.053C96.4062 153.106 96.3711 153.165 96.3425 153.229L96.2545 153.422C96.2257 153.485 96.2038 153.552 96.1894 153.621L96.1463 153.83C96.1318 153.899 96.125 153.969 96.1261 154.039L96.1305 154.252C96.132 154.32 96.1412 154.388 96.1578 154.453L96.2079 154.653C96.2246 154.719 96.2492 154.78 96.28 154.837L96.375 155.01C96.406 155.067 96.4436 155.119 96.4867 155.163L96.6187 155.299C96.6622 155.343 96.7104 155.38 96.762 155.409L96.9221 155.497C96.9749 155.526 97.0312 155.547 97.0892 155.559L97.266 155.594C97.325 155.606 97.385 155.609 97.4446 155.602L97.6275 155.581C97.6573 155.578 97.687 155.573 97.7163 155.565L100.402 154.858L103.088 154.149L105.771 153.442L108.457 152.734L111.14 152.026L113.824 151.319C113.853 151.311 113.882 151.301 113.911 151.289L114.086 151.215C114.144 151.191 114.199 151.158 114.25 151.117L114.406 150.994C114.457 150.954 114.504 150.906 114.546 150.852L114.672 150.688C114.713 150.635 114.748 150.576 114.777 150.512L114.865 150.319C114.894 150.256 114.916 150.189 114.93 150.12L114.973 149.911C114.988 149.842 114.995 149.772 114.994 149.702L114.989 149.489C114.988 149.421 114.979 149.353 114.962 149.288L114.912 149.088C114.895 149.023 114.871 148.961 114.84 148.904L114.745 148.731C114.713 148.674 114.676 148.622 114.633 148.578L114.501 148.442C114.479 148.42 114.456 148.4 114.432 148.382Z" fill="#231F20"/>
<path d="M14.1113 96.1111C14.1012 96.1034 14.0915 96.0949 14.0823 96.0856L13.9486 95.953C13.9264 95.9317 13.9069 95.9067 13.8905 95.8787L13.7938 95.7079C13.7773 95.6795 13.7643 95.6484 13.7551 95.6156L13.7023 95.4171C13.6975 95.4012 13.6936 95.3849 13.6909 95.3683L11.8992 83.4446C11.8967 83.4278 11.8953 83.4108 11.8948 83.3937L11.8869 83.1815C11.886 83.1465 11.8889 83.1115 11.8957 83.0775L11.9353 82.8674C11.9422 82.8323 11.9529 82.7984 11.9669 82.7666L12.0514 82.5713C12.0655 82.5395 12.0829 82.5099 12.1033 82.4833L12.2264 82.3167C12.2469 82.2888 12.2703 82.2642 12.2959 82.2434L12.4498 82.1172C12.4753 82.0966 12.5028 82.0798 12.5316 82.0673L12.7058 81.9888C12.7341 81.9763 12.7637 81.9682 12.7937 81.9644L12.9758 81.94C13.0056 81.9361 13.0358 81.9368 13.0655 81.9421L13.2432 81.9739C13.2719 81.9789 13.3001 81.9886 13.3267 82.0026L13.4886 82.0875C13.515 82.1023 13.5396 82.1193 13.5607 82.1405L13.6953 82.2732C13.7172 82.2949 13.7364 82.3202 13.7524 82.3485L13.8501 82.5193C13.8664 82.5477 13.8791 82.5788 13.8879 82.6116L13.9415 82.809C13.9461 82.8253 13.9496 82.842 13.9521 82.8589L15.7438 94.7826C15.7465 94.7994 15.7483 94.8164 15.749 94.8335L15.7561 95.0457C15.757 95.0807 15.754 95.1157 15.7473 95.1497L15.7077 95.3598C15.7011 95.3949 15.6907 95.4288 15.6769 95.4606L15.5916 95.6548C15.5778 95.6871 15.5607 95.717 15.5406 95.744L15.4174 95.9106C15.3966 95.938 15.3729 95.9623 15.3471 95.9827L15.1932 96.11C15.1679 96.1304 15.1407 96.1472 15.1122 96.1599L14.9381 96.2374C14.9097 96.2502 14.8802 96.2587 14.8501 96.2628L14.6681 96.2872C14.6382 96.291 14.6081 96.2903 14.5783 96.2851L14.4007 96.2533C14.3716 96.2483 14.3432 96.2387 14.3162 96.2246L14.1553 96.1398C14.14 96.1316 14.1253 96.122 14.1113 96.1111Z" fill="#CAE062"/>
<path d="M13.3312 82.4535L13.4649 82.5861L13.5626 82.7559L13.6171 82.9554L13.9153 84.9407L14.2143 86.9271L14.5125 88.9135L14.8115 90.901L15.1097 92.8895L15.4088 94.878L15.4158 95.0903L15.3753 95.3004L15.2909 95.4945L15.1669 95.6611L15.013 95.7874L14.8379 95.8649L14.6559 95.8893L14.4782 95.8574L14.3163 95.7726L14.1826 95.6399L14.085 95.4701L14.0305 95.2717L13.7323 93.2853L13.4333 91.2989L13.1351 89.3125L12.8369 87.325L12.5379 85.3365L12.2388 83.348L12.2318 83.1358L12.2722 82.9267L12.3576 82.7315L12.4807 82.5649L12.6346 82.4386L12.8097 82.3612L12.9917 82.3368L13.1694 82.3686L13.3312 82.4535ZM13.7358 81.7765C13.7086 81.7555 13.6801 81.737 13.6505 81.7213L13.4887 81.6364C13.4353 81.6085 13.3791 81.5893 13.3216 81.5791L13.143 81.5473C13.0836 81.5367 13.0233 81.5352 12.9636 81.5431L12.7815 81.5675C12.7214 81.5754 12.6623 81.5921 12.6056 81.6173L12.4323 81.6948C12.3745 81.7205 12.3196 81.7548 12.2687 81.7967L12.1148 81.9229C12.0641 81.9642 12.0178 82.0126 11.9767 82.0672L11.8536 82.2338C11.8134 82.288 11.7788 82.3478 11.7507 82.4121L11.6653 82.6063C11.6378 82.6701 11.6171 82.7378 11.6038 82.8079L11.5633 83.018C11.5503 83.0865 11.545 83.1568 11.5475 83.227L11.5545 83.4393C11.5556 83.4731 11.5585 83.5067 11.5633 83.5401L11.8624 85.5296L12.1614 87.5182L12.4605 89.5056L12.7586 91.491L13.0577 93.4774L13.355 95.4638C13.3603 95.4972 13.3673 95.5301 13.3761 95.5625L13.4297 95.7609C13.4473 95.8256 13.4737 95.8882 13.5054 95.9434L13.6021 96.1153C13.6347 96.1705 13.6734 96.2214 13.7174 96.2649L13.8511 96.3976C13.895 96.44 13.9443 96.4771 13.9971 96.5037L14.1589 96.5886C14.2117 96.6172 14.268 96.6374 14.326 96.6469L14.5046 96.6787C14.5635 96.6894 14.6233 96.6904 14.684 96.683L14.8661 96.6586C14.9262 96.6506 14.9852 96.6339 15.042 96.6087L15.2152 96.5313C15.273 96.5055 15.328 96.4712 15.3788 96.4294L15.5328 96.3031C15.5834 96.2619 15.6298 96.2134 15.6709 96.1588L15.794 95.9922C15.8342 95.9381 15.8688 95.8782 15.8969 95.8139L15.9813 95.6198C16.0092 95.556 16.0302 95.4883 16.0438 95.4181L16.0843 95.208C16.0973 95.1395 16.1026 95.0692 16.1001 94.999L16.0931 94.7868C16.092 94.753 16.089 94.7193 16.0843 94.686L15.7852 92.6964L15.4862 90.7079L15.1871 88.7204L14.8889 86.7351L14.5899 84.7487L14.2926 82.7623C14.2873 82.7289 14.2802 82.6959 14.2715 82.6636L14.2178 82.4652C14.1999 82.4003 14.1744 82.3388 14.1422 82.2827L14.0454 82.1108C14.0131 82.0546 13.9743 82.0042 13.9302 81.9611L13.7956 81.8285C13.7769 81.8097 13.7563 81.7924 13.7358 81.7765Z" fill="#231F20"/>
<path d="M63.3357 145.193L62.8599 146.444L62.3919 147.697L61.9284 148.953L61.4623 150.21L60.9926 151.463L60.5123 152.712L61.2819 153.63L62.0445 154.558L62.8018 155.491L63.56 156.426L64.3199 157.356L65.086 158.28L64.0455 157.816L63.0006 157.361L61.9539 156.911L60.9064 156.459L59.8623 156L58.8227 155.53L57.9766 156.498L57.1225 157.455L56.264 158.41L55.4038 159.363L54.5471 160.319L53.6966 161.281L54.1865 160.008L54.6685 158.731L55.147 157.451L55.6264 156.171L56.1101 154.895L56.6053 153.622L55.8208 152.728L55.045 151.824L54.2727 150.913L53.5005 150.002L52.7265 149.095L51.9463 148.196L53.0018 148.636L54.0608 149.067L55.1215 149.494L56.1831 149.922L57.2404 150.357L58.2941 150.803L59.127 149.86L59.967 148.925L60.8114 147.995L61.6566 147.065L62.4993 146.132L63.3357 145.193Z" fill="white"/>
<path d="M53.9319 161.558L53.3919 161.141L54.3629 158.593L55.8054 154.756L56.2021 153.735L54.8001 152.115L52.4815 149.386L51.7031 148.489L52.0884 147.818L54.1993 148.689L57.3816 149.978L58.2347 150.34L59.7458 148.646L63.1145 144.915L63.6537 145.332L62.7108 147.833L61.3106 151.6L60.9236 152.604L62.3053 154.271L65.3469 157.991L64.9502 158.654L62.8656 157.736L59.7274 156.375L58.8918 155.997L57.3561 157.733L53.9319 161.558ZM53.3189 149.194L56.0781 152.435L56.8609 153.327L56.9224 153.764L55.9444 156.309L54.7033 159.62L57.7545 156.22L58.5989 155.255L58.9727 155.157L61.0528 156.083L63.7461 157.247L61.0326 153.916L60.2648 153L60.2067 152.571L61.1566 150.073L62.3616 146.822L59.3597 150.139L58.5294 151.079L58.1626 151.18L56.0543 150.3L53.3189 149.194Z" fill="#231F20"/>
<path d="M134.651 78.9074L134.887 78.3874L135.004 77.825L134.993 77.2563L134.856 76.7215L134.602 76.2567L134.248 75.8928L133.819 75.6551L133.342 75.5596L132.853 75.6148L132.382 75.8132L131.963 76.1442L131.624 76.5846L131.389 77.1035L131.272 77.6659L131.283 78.2346L131.42 78.7705L131.674 79.2353L132.028 79.5992L132.457 79.8369L132.933 79.9314L133.423 79.8772L133.894 79.6777L134.312 79.3477L134.651 78.9074Z" fill="#C3ACF1"/>
<path d="M131.869 79.9611L131.798 79.9059L131.443 79.543L131.387 79.4666L131.133 79.0008L131.097 78.9085L130.96 78.3737L130.947 78.2729L130.936 77.7041L130.945 77.6001L131.061 77.0377L131.094 76.9369L131.33 76.4181L131.383 76.33L131.722 75.8896L131.791 75.8185L132.211 75.4885L132.293 75.4386L132.763 75.2402L132.851 75.2169L133.341 75.1638L133.43 75.167L133.906 75.2614L133.989 75.2922L134.419 75.5299L134.491 75.5851L134.844 75.949L134.901 76.0254L135.155 76.4902L135.191 76.5825L135.328 77.1184L135.341 77.2192L135.352 77.7869L135.342 77.8919L135.226 78.4543L135.194 78.5541L134.957 79.074L134.905 79.161L134.566 79.6014L134.496 79.6735L134.077 80.0025L133.995 80.0524L133.525 80.2508L133.437 80.2741L132.947 80.3283L132.858 80.3251L132.382 80.2296L132.298 80.1999L131.869 79.9611ZM131.949 78.9605L132.238 79.2576L132.588 79.4518L132.977 79.5282L133.376 79.4847L133.761 79.3223L134.102 79.0528L134.378 78.6931L134.571 78.2686L134.666 77.8102L134.657 77.3465L134.545 76.9094L134.339 76.5305L134.049 76.2334L133.699 76.0403L133.311 75.9628L132.911 76.0063L132.528 76.1687L132.185 76.4393L131.909 76.7979L131.717 77.2224L131.622 77.6808L131.63 78.1445L131.742 78.5817L131.949 78.9605Z" fill="#231F20"/>
<path d="M2.12009 81.0933L2.25554 80.7962L2.32151 80.4757L2.31535 80.151L2.23795 79.8443L2.09194 79.5791L1.88964 79.3711L1.64425 79.2353L1.37246 79.1812L1.09276 79.213L0.823617 79.3255L0.584375 79.5143L0.390873 79.7669L0.2563 80.064L0.189453 80.3844L0.19561 80.7091L0.274771 81.0158L0.419018 81.2811L0.621318 81.4891L0.867594 81.6249L1.1385 81.679L1.4182 81.6472L1.68735 81.5347L1.92659 81.3448L2.12009 81.0933Z" fill="#EE4878"/>
<path d="M0.456216 81.851L0.38497 81.7958L0.182672 81.5889L0.126381 81.5125L-0.0187477 81.2472L-0.05481 81.1538L-0.133971 80.8482L-0.147163 80.7474L-0.15332 80.4227L-0.142765 80.3187L-0.0767986 79.9961L-0.0442543 79.8964L0.0911974 79.5993L0.143971 79.5123L0.337475 79.2597L0.406961 79.1886L0.6462 78.9997L0.728 78.9509L0.997145 78.8374L1.0851 78.8141L1.3648 78.7822L1.45364 78.7865L1.7263 78.8406L1.80986 78.8724L2.05526 79.0072L2.1265 79.0624L2.3288 79.2703L2.38509 79.3467L2.53022 79.612L2.5654 79.7054L2.64456 80.011L2.65776 80.1118L2.66391 80.4365L2.65512 80.5405L2.58827 80.862L2.55573 80.9628L2.42027 81.2599L2.3675 81.3469L2.174 81.5984L2.10363 81.6695L1.86527 81.8594L1.78259 81.9083L1.51433 82.0218L1.42637 82.0451L1.14667 82.0759L1.05695 82.0717L0.78517 82.0186L0.701613 81.9868L0.456216 81.851ZM0.68842 81.0063L0.825631 81.1474L0.992746 81.2398L1.1757 81.2769L1.36568 81.2557L1.54863 81.1782L1.71047 81.0509L1.8424 80.88L1.933 80.6784L1.97873 80.4609L1.97434 80.2402L1.92156 80.0333L1.82305 79.8529L1.68584 79.7128L1.51872 79.6205L1.3349 79.5834L1.14579 79.6046L0.962843 79.682L0.801004 79.8094L0.669068 79.9802L0.577594 80.1818L0.533616 80.3994L0.537134 80.6201L0.589908 80.827L0.68842 81.0063Z" fill="#231F20"/>
<path d="M31.6815 28.7529L31.8161 28.4558L31.8829 28.1354L31.8768 27.8096L31.7976 27.5051L31.6534 27.2387L31.4511 27.0308L31.2048 26.8949L30.933 26.8408L30.6533 26.8727L30.385 26.9851L30.1449 27.174L29.9514 27.4255L29.8168 27.7226L29.75 28.0441L29.7562 28.3688L29.8353 28.6744L29.9796 28.9408L30.1819 29.1487L30.4281 29.2846L30.6999 29.3387L30.9796 29.3068L31.2479 29.1933L31.488 29.0055L31.6815 28.7529Z" fill="#CAE062"/>
<path d="M30.0197 29.5116L29.9476 29.4564L29.7453 29.2484L29.689 29.172L29.5438 28.9068L29.5087 28.8145L29.4295 28.5078L29.4163 28.407L29.4102 28.0823L29.4198 27.9783L29.4867 27.6568L29.5192 27.556L29.6538 27.2589L29.7066 27.1719L29.9001 26.9204L29.9704 26.8493L30.2097 26.6604L30.2915 26.6105L30.5606 26.497L30.6486 26.4747L30.9283 26.4429L31.0162 26.4471L31.2889 26.5002L31.3725 26.532L31.6179 26.6678L31.6891 26.723L31.8914 26.9299L31.9477 27.0074L32.0928 27.2727L32.1289 27.365L32.208 27.6706L32.2212 27.7714L32.2274 28.0961L32.2177 28.2011L32.1509 28.5226L32.1183 28.6224L31.9829 28.9195L31.9301 29.0076L31.7366 29.2591L31.6662 29.3302L31.4279 29.519L31.3461 29.5678L31.0769 29.6814L30.989 29.7047L30.7093 29.7366L30.6204 29.7323L30.3478 29.6793L30.2642 29.6474L30.0197 29.5116ZM30.2519 28.667L30.3891 28.8081L30.5553 28.8993L30.7401 28.9365L30.9292 28.9153L31.1112 28.8389L31.2739 28.7115L31.405 28.5396L31.4965 28.338L31.5413 28.1205L31.5369 27.9008L31.4842 27.6929L31.3856 27.5125L31.2484 27.3724L31.0822 27.2801L30.8984 27.2429L30.7084 27.2642L30.5263 27.3416L30.3645 27.469L30.2325 27.6409L30.1411 27.8425L30.0971 28.06L30.1006 28.2797L30.1534 28.4866L30.2519 28.667Z" fill="#231F20"/>
<path d="M6.47361 107.469L6.60906 107.172L6.67502 106.851L6.66887 106.526L6.59147 106.22L6.44546 105.955L6.24316 105.747L5.99776 105.61L5.72598 105.557L5.44628 105.588L5.17713 105.701L4.93789 105.89L4.74439 106.142L4.60982 106.439L4.54297 106.76L4.54913 107.085L4.62829 107.391L4.77254 107.656L4.97483 107.864L5.22111 108L5.49201 108.054L5.77259 108.023L6.04086 107.91L6.28098 107.721L6.47361 107.469Z" fill="#7248EE"/>
<path d="M4.80885 108.227L4.73761 108.172L4.53531 107.964L4.47902 107.887L4.33389 107.621L4.29871 107.53L4.21955 107.224L4.20635 107.122L4.2002 106.798L4.20899 106.694L4.27584 106.372L4.30838 106.271L4.44383 105.974L4.49661 105.887L4.69011 105.636L4.76047 105.564L4.99971 105.375L5.08151 105.326L5.34978 105.212L5.43774 105.189L5.71744 105.158L5.80627 105.162L6.07894 105.216L6.16249 105.247L6.40789 105.383L6.47914 105.438L6.68143 105.645L6.73773 105.722L6.88285 105.987L6.91892 106.08L6.9972 106.386L7.01039 106.487L7.01655 106.811L7.00775 106.915L6.9409 107.238L6.90836 107.338L6.77291 107.635L6.72014 107.722L6.52663 107.974L6.45627 108.045L6.21791 108.234L6.13523 108.283L5.86696 108.397L5.77901 108.42L5.49931 108.451L5.41047 108.448L5.13781 108.394L5.05425 108.363L4.80885 108.227ZM5.04105 107.382L5.17827 107.522L5.34538 107.615L5.52921 107.652L5.71832 107.631L5.90038 107.553L6.0631 107.426L6.19504 107.255L6.28563 107.053L6.33137 106.836L6.32609 106.615L6.27332 106.408L6.17569 106.229L6.0376 106.088L5.87136 105.995L5.68753 105.958L5.49755 105.98L5.31548 106.057L5.15276 106.184L5.0217 106.355L4.93023 106.557L4.88537 106.774L4.88977 106.994L4.94254 107.202L5.04105 107.382Z" fill="#231F20"/>
<path d="M104.689 166.732L104.824 166.436L104.891 166.114L104.885 165.79L104.806 165.484L104.661 165.218L104.459 165.01L104.213 164.874L103.941 164.82L103.661 164.851L103.393 164.965L103.153 165.153L102.959 165.405L102.825 165.702L102.758 166.024L102.765 166.348L102.842 166.655L102.987 166.92L103.19 167.128L103.435 167.264L103.708 167.318L103.987 167.287L104.257 167.174L104.496 166.985L104.689 166.732Z" fill="#C3ACF1"/>
<path d="M103.024 167.491L102.952 167.436L102.75 167.228L102.694 167.152L102.549 166.885L102.513 166.794L102.434 166.487L102.421 166.386L102.415 166.062L102.425 165.958L102.491 165.636L102.523 165.535L102.659 165.239L102.711 165.151L102.905 164.9L102.974 164.829L103.214 164.639L103.296 164.59L103.565 164.476L103.653 164.453L103.932 164.422L104.021 164.427L104.294 164.48L104.377 164.51L104.623 164.647L104.695 164.702L104.897 164.909L104.953 164.987L105.098 165.252L105.134 165.344L105.212 165.65L105.226 165.751L105.232 166.076L105.223 166.181L105.156 166.502L105.123 166.602L104.988 166.899L104.936 166.986L104.742 167.239L104.672 167.31L104.433 167.499L104.35 167.547L104.082 167.661L103.994 167.684L103.714 167.715L103.625 167.712L103.353 167.658L103.269 167.627L103.024 167.491ZM103.256 166.645L103.393 166.787L103.559 166.879L103.743 166.916L103.933 166.895L104.116 166.817L104.278 166.689L104.409 166.519L104.5 166.318L104.545 166.1L104.541 165.879L104.488 165.672L104.39 165.492L104.252 165.352L104.086 165.26L103.902 165.222L103.712 165.244L103.53 165.321L103.368 165.448L103.237 165.619L103.145 165.821L103.1 166.038L103.105 166.259L103.157 166.466L103.256 166.645Z" fill="#231F20"/>
<path d="M142.023 94.388L142.158 94.0908L142.225 93.7693L142.219 93.4446L142.14 93.139L141.995 92.8737L141.793 92.6658L141.547 92.5299L141.275 92.4758L140.995 92.5077L140.727 92.6201L140.488 92.809L140.294 93.0605L140.159 93.3576L140.092 93.6791L140.099 94.0038L140.177 94.3094L140.321 94.5758L140.525 94.7837L140.77 94.9196L141.042 94.9737L141.321 94.9418L141.591 94.8294L141.83 94.6405L142.023 94.388Z" fill="#F7B3C7"/>
<path d="M140.359 95.1456L140.286 95.0905L140.084 94.8835L140.028 94.8061L139.883 94.5408L139.847 94.4485L139.768 94.1429L139.755 94.0421L139.749 93.7163L139.759 93.6123L139.826 93.2908L139.858 93.1911L139.993 92.894L140.045 92.8059L140.239 92.5544L140.309 92.4833L140.549 92.2944L140.63 92.2456L140.899 92.1321L140.987 92.1087L141.267 92.0769L141.356 92.0811L141.628 92.1353L141.711 92.1671L141.957 92.3019L142.029 92.357L142.231 92.565L142.287 92.6414L142.433 92.9067L142.469 92.999L142.547 93.3046L142.56 93.4065L142.566 93.7312L142.557 93.8352L142.49 94.1567L142.457 94.2575L142.323 94.5546L142.27 94.6416L142.076 94.8931L142.006 94.9642L141.767 95.1531L141.685 95.2029L141.416 95.3165L141.328 95.3398L141.048 95.3706L140.959 95.3663L140.688 95.3133L140.604 95.2815L140.359 95.1456ZM140.59 94.301L140.727 94.4421L140.894 94.5344L141.078 94.5705L141.268 94.5493L141.45 94.4729L141.612 94.3445L141.743 94.1747L141.834 93.9731L141.88 93.7545L141.876 93.5338L141.822 93.3269L141.725 93.1465L141.587 93.0064L141.42 92.9141L141.236 92.877L141.046 92.8982L140.864 92.9757L140.702 93.103L140.571 93.2738L140.48 93.4754L140.434 93.693L140.439 93.9137L140.491 94.1206L140.59 94.301Z" fill="#231F20"/>
<path d="M39.963 65.7963L40.6297 64.0348L40.8461 62.1535L40.7406 60.2859L40.3562 58.4894L39.6684 56.8468L38.5918 55.5449L40.0589 56.1943L41.6615 56.3099L43.2772 56.051L44.8499 55.4695L46.3143 54.5464L47.5141 53.1924L46.8473 54.9538L46.631 56.8352L46.7365 58.7038L47.1209 60.4992L47.8087 62.1429L48.8853 63.4448L47.4182 62.7944L45.8147 62.6787L44.1999 62.9387L42.6272 63.5191L41.1619 64.4433L39.963 65.7963Z" fill="white"/>
<path d="M39.6568 65.6584L40.3024 63.9521L40.5083 62.1695L40.4071 60.3741L40.0377 58.6508L39.3851 57.0931L38.3428 55.8315L38.7386 55.1704L40.1599 55.7996L41.6789 55.9089L43.2305 55.6596L44.7407 55.1025L46.1286 54.226L47.2897 52.9155L47.8315 53.3304L47.185 55.0377L46.9801 56.8204L47.0812 58.6137L47.4506 60.338L48.1024 61.8957L49.1455 63.1563L48.7497 63.8184L47.3275 63.1892L45.8085 63.0799L44.2569 63.3293L42.7467 63.8874L41.3597 64.7628L40.1978 66.0733L39.6568 65.6584ZM39.9365 56.5721L39.984 56.6506L40.6947 58.3665L41.0888 60.2298L41.1917 62.178L40.9753 64.0593L40.9516 64.1569L41.0219 64.0954L42.5506 63.1404L44.1831 62.543L45.8665 62.2809L47.4691 62.3955L47.5509 62.4167L47.5043 62.3382L46.7936 60.6213L46.3996 58.7591L46.2966 56.8109L46.513 54.9295L46.5368 54.8319L46.4664 54.8934L44.9368 55.8484L43.3053 56.4458L41.6218 56.7079L40.0192 56.5933L39.9365 56.5721Z" fill="#231F20"/>
</g>
<defs>
<clipPath id="clip0_1_88674">
<rect width="155" height="191" fill="white"/>
</clipPath>
</defs>
</svg>
